<?xml version="1.0" encoding="UTF-8"?>
<!DOCTYPE svg PUBLIC "-//W3C//DTD SVG 1.1//EN" "http://www.w3.org/Graphics/SVG/1.1/DTD/svg11.dtd">
<!-- Creator: CorelDRAW 2019 (64-Bit) -->
<svg xmlns="http://www.w3.org/2000/svg" xml:space="preserve" width="6in" height="0.305772in" version="1.1" style="shape-rendering:geometricPrecision; text-rendering:geometricPrecision; image-rendering:optimizeQuality; fill-rule:evenodd; clip-rule:evenodd"
viewBox="0 0 5038.44 256.77"
 xmlns:xlink="http://www.w3.org/1999/xlink">
 <defs>
  <style type="text/css">
   <![CDATA[
    .fil0 {fill:#047AAC;fill-rule:nonzero}
    .fil1 {fill:#333333;fill-rule:nonzero}
   ]]>
  </style>
 </defs>
 <g id="Layer_x0020_1">
  <metadata id="CorelCorpID_0Corel-Layer"/>
  <path class="fil0" d="M36.89 99.8c-9.21,0 -16.99,-2.06 -23.34,-6.17 -6.35,-4.11 -10.87,-9.79 -13.55,-17.04l15.83 -9.25c3.67,9.57 10.86,14.35 21.6,14.35 5.01,0 8.76,-0.9 11.26,-2.68 2.51,-1.79 3.76,-4.21 3.76,-7.25 0,-3.31 -1.48,-5.86 -4.43,-7.65 -2.95,-1.88 -8.23,-3.89 -15.83,-6.04 -8.23,-2.5 -14.71,-5.41 -19.45,-8.72 -5.9,-4.38 -8.85,-10.82 -8.85,-19.32 0,-8.58 2.99,-15.34 8.98,-20.25 5.99,-5.1 13.28,-7.65 21.86,-7.65 7.51,0 14.17,1.83 19.99,5.5 5.81,3.67 10.33,8.85 13.55,15.56l-15.56 8.98c-3.76,-8.05 -9.75,-12.07 -17.97,-12.07 -3.76,0 -6.75,0.87 -8.98,2.62 -2.24,1.74 -3.36,4 -3.36,6.77 0,2.95 1.21,5.37 3.62,7.24 2.68,1.88 7.42,3.85 14.22,5.9l6.44 2.15c1.16,0.36 3.18,1.12 6.04,2.28 2.69,0.98 4.65,1.92 5.9,2.81 4.38,2.68 7.33,5.46 8.86,8.32 2.32,3.76 3.48,8.18 3.48,13.28 0,8.67 -3.17,15.56 -9.52,20.66 -6.35,5.1 -14.54,7.65 -24.55,7.65z"/>
  <path id="1" class="fil0" d="M121.26 28.98c9.03,0 16.73,3.44 23.07,10.33 6.44,6.88 9.66,15.24 9.66,25.08 0,10.02 -3.22,18.42 -9.66,25.22 -6.26,6.79 -13.95,10.19 -23.07,10.19 -9.39,0 -16.63,-3.27 -21.73,-9.79l0 34.74 -17.31 0 0 -93.89 17.31 0 0 7.91c5.09,-6.53 12.34,-9.79 21.73,-9.79zm-16.5 49.09c3.49,3.49 7.91,5.23 13.28,5.23 5.37,0 9.79,-1.74 13.28,-5.23 3.58,-3.58 5.37,-8.14 5.37,-13.68 0,-5.55 -1.79,-10.06 -5.37,-13.55 -3.48,-3.57 -7.91,-5.36 -13.28,-5.36 -5.37,0 -9.79,1.79 -13.28,5.36 -3.49,3.49 -5.23,8 -5.23,13.55 0,5.55 1.74,10.1 5.23,13.68z"/>
  <path id="2" class="fil0" d="M231.39 71.5l-50.57 0c2.24,8.41 8.54,12.61 18.92,12.61 6.62,0 11.63,-2.24 15.02,-6.71l13.95 8.05c-6.62,9.57 -16.36,14.35 -29.24,14.35 -11.09,0 -19.99,-3.36 -26.7,-10.06 -6.71,-6.71 -10.06,-15.16 -10.06,-25.35 0,-10.02 3.31,-18.42 9.93,-25.22 6.53,-6.8 15.03,-10.19 25.49,-10.19 9.93,0 18.02,3.39 24.28,10.19 6.44,6.79 9.66,15.2 9.66,25.22 0,1.88 -0.22,4.25 -0.67,7.11zm-50.84 -13.42l34.2 0c-0.98,-4.38 -2.97,-7.74 -5.97,-10.06 -3,-2.32 -6.55,-3.49 -10.66,-3.49 -4.65,0 -8.49,1.18 -11.54,3.56 -3.04,2.37 -5.05,5.7 -6.04,9.99z"/>
  <path id="3" class="fil0" d="M275.52 99.8c-10.1,0 -18.55,-3.4 -25.35,-10.19 -6.71,-6.8 -10.06,-15.2 -10.06,-25.22 0,-10.02 3.36,-18.42 10.06,-25.22 6.8,-6.8 15.25,-10.19 25.35,-10.19 6.53,0 12.47,1.56 17.84,4.69 5.36,3.13 9.44,7.33 12.21,12.61l-14.89 8.72c-1.34,-2.78 -3.37,-4.97 -6.1,-6.58 -2.73,-1.61 -5.79,-2.41 -9.19,-2.41 -5.19,0 -9.48,1.72 -12.88,5.16 -3.39,3.44 -5.09,7.85 -5.09,13.21 0,5.19 1.7,9.57 5.09,13.15 3.4,3.4 7.69,5.09 12.88,5.09 3.49,0 6.6,-0.78 9.32,-2.34 2.73,-1.57 4.76,-3.74 6.11,-6.51l15.02 8.58c-2.95,5.37 -7.13,9.61 -12.54,12.75 -5.41,3.13 -11.33,4.69 -17.77,4.69z"/>
  <path id="4" class="fil0" d="M323.54 22.8c-2.86,0 -5.34,-1.05 -7.44,-3.15 -2.1,-2.1 -3.15,-4.58 -3.15,-7.44 0,-2.86 1.05,-5.36 3.15,-7.51 2.1,-2.15 4.58,-3.22 7.44,-3.22 2.95,0 5.48,1.07 7.58,3.22 2.1,2.15 3.15,4.65 3.15,7.51 0,2.86 -1.05,5.34 -3.15,7.44 -2.11,2.1 -4.63,3.15 -7.58,3.15zm8.72 75.12l-17.31 0 0 -67.07 17.31 0 0 67.07z"/>
  <path id="5" class="fil0" d="M399.06 38.76l0 -7.91 17.31 0 0 67.07 -17.31 0 0 -7.91c-5.18,6.53 -12.47,9.79 -21.86,9.79 -8.94,0 -16.63,-3.4 -23.07,-10.19 -6.35,-6.89 -9.53,-15.29 -9.53,-25.22 0,-9.84 3.18,-18.2 9.53,-25.08 6.44,-6.89 14.13,-10.33 23.07,-10.33 9.39,0 16.68,3.26 21.86,9.79zm-31.93 39.3c3.49,3.49 7.91,5.23 13.28,5.23 5.37,0 9.79,-1.74 13.28,-5.23 3.58,-3.58 5.36,-8.14 5.36,-13.68 0,-5.55 -1.78,-10.06 -5.36,-13.55 -3.49,-3.57 -7.91,-5.36 -13.28,-5.36 -5.37,0 -9.79,1.79 -13.28,5.36 -3.48,3.49 -5.23,8 -5.23,13.55 0,5.55 1.74,10.1 5.23,13.68z"/>
  <polygon id="6" class="fil0" points="449.37,97.92 432.07,97.92 432.07,0 449.37,0 "/>
  <path id="7" class="fil0" d="M499.54 4.02l35.01 0c8.94,0 16.54,3.04 22.8,9.12 6.17,6.08 9.26,13.54 9.26,22.4 0,8.85 -3.09,16.32 -9.26,22.4 -6.26,6.08 -13.86,9.12 -22.8,9.12l-16.5 0 0 30.85 -18.51 0 0 -93.9zm18.51 45.74l16.5 0c3.93,0 7.2,-1.36 9.79,-4.09 2.59,-2.73 3.89,-6.1 3.89,-10.12 0,-4.11 -1.3,-7.51 -3.89,-10.19 -2.6,-2.69 -5.86,-4.02 -9.79,-4.02l-16.5 0 0 28.44z"/>
  <path id="8" class="fil0" d="M593.71 30.85l0 11.53c1.52,-4.2 4.11,-7.4 7.78,-9.59 3.67,-2.19 7.87,-3.29 12.61,-3.29l0 19.31c-5.28,-0.71 -10.02,0.36 -14.22,3.22 -4.11,2.77 -6.17,7.38 -6.17,13.82l0 32.06 -17.31 0 0 -67.07 17.31 0z"/>
  <path id="9" class="fil0" d="M678.75 89.61c-6.79,6.79 -15.2,10.19 -25.22,10.19 -10.02,0 -18.42,-3.4 -25.22,-10.19 -6.79,-6.8 -10.19,-15.2 -10.19,-25.22 0,-9.93 3.4,-18.29 10.19,-25.08 6.89,-6.89 15.29,-10.33 25.22,-10.33 9.93,0 18.33,3.44 25.22,10.33 6.89,6.88 10.33,15.24 10.33,25.08 0,9.93 -3.44,18.33 -10.33,25.22zm-38.23 -11.94c3.49,3.49 7.83,5.23 13.01,5.23 5.18,0 9.53,-1.74 13.01,-5.23 3.49,-3.49 5.23,-7.91 5.23,-13.28 0,-5.36 -1.74,-9.79 -5.23,-13.28 -3.48,-3.49 -7.83,-5.23 -13.01,-5.23 -5.19,0 -9.53,1.74 -13.01,5.23 -3.39,3.57 -5.09,8 -5.09,13.28 0,5.28 1.7,9.7 5.09,13.28z"/>
  <path id="10" class="fil0" d="M752.66 39.17l0 -8.32 16.9 0 0 63.85c0,10.29 -3.44,18.2 -10.33,23.74 -6.79,5.46 -15.03,8.18 -24.68,8.18 -15.2,0 -25.8,-5.45 -31.79,-16.36l14.75 -8.45c3.31,6.26 9.17,9.39 17.57,9.39 5.46,0 9.75,-1.43 12.88,-4.3 3.13,-2.86 4.7,-6.93 4.7,-12.21l0 -7.24c-5.1,6.79 -12.26,10.19 -21.46,10.19 -9.48,0 -17.44,-3.31 -23.88,-9.93 -6.35,-6.79 -9.53,-14.94 -9.53,-24.41 0,-9.48 3.22,-17.57 9.66,-24.28 6.44,-6.71 14.35,-10.06 23.74,-10.06 9.21,0 16.36,3.39 21.46,10.19zm-5.3 37.36c3.53,-3.44 5.3,-7.85 5.3,-13.21 0,-5.37 -1.79,-9.7 -5.37,-13.01 -3.49,-3.49 -7.96,-5.23 -13.42,-5.23 -5.36,0 -9.88,1.74 -13.55,5.23 -3.48,3.31 -5.23,7.65 -5.23,13.01 0,5.36 1.76,9.77 5.3,13.21 3.53,3.44 8.03,5.16 13.48,5.16 5.46,0 9.95,-1.72 13.48,-5.16z"/>
  <path id="11" class="fil0" d="M802.56 30.85l0 11.53c1.52,-4.2 4.11,-7.4 7.78,-9.59 3.67,-2.19 7.87,-3.29 12.61,-3.29l0 19.31c-5.28,-0.71 -10.02,0.36 -14.22,3.22 -4.11,2.77 -6.17,7.38 -6.17,13.82l0 32.06 -17.31 0 0 -67.07 17.31 0z"/>
  <path id="12" class="fil0" d="M881.44 38.76l0 -7.91 17.31 0 0 67.07 -17.31 0 0 -7.91c-5.18,6.53 -12.47,9.79 -21.86,9.79 -8.94,0 -16.63,-3.4 -23.07,-10.19 -6.35,-6.89 -9.53,-15.29 -9.53,-25.22 0,-9.84 3.18,-18.2 9.53,-25.08 6.44,-6.89 14.13,-10.33 23.07,-10.33 9.39,0 16.68,3.26 21.86,9.79zm-31.93 39.3c3.49,3.49 7.91,5.23 13.28,5.23 5.37,0 9.79,-1.74 13.28,-5.23 3.58,-3.58 5.36,-8.14 5.36,-13.68 0,-5.55 -1.78,-10.06 -5.36,-13.55 -3.49,-3.57 -7.91,-5.36 -13.28,-5.36 -5.37,0 -9.79,1.79 -13.28,5.36 -3.48,3.49 -5.23,8 -5.23,13.55 0,5.55 1.74,10.1 5.23,13.68z"/>
  <path id="13" class="fil0" d="M988.61 28.98c7.69,0 13.84,2.5 18.45,7.51 4.6,5.01 6.91,11.72 6.91,20.12l0 41.32 -17.31 0 0 -40.11c0,-4.02 -0.98,-7.16 -2.95,-9.39 -1.97,-2.24 -4.74,-3.35 -8.32,-3.35 -3.93,0 -7,1.29 -9.19,3.89 -2.19,2.59 -3.29,6.35 -3.29,11.26l0 37.69 -17.3 0 0 -40.11c0,-4.02 -0.99,-7.16 -2.95,-9.39 -1.97,-2.24 -4.74,-3.35 -8.32,-3.35 -3.85,0 -6.91,1.32 -9.19,3.95 -2.28,2.64 -3.42,6.37 -3.42,11.2l0 37.69 -17.31 0 0 -67.07 17.31 0 0 7.11c4.02,-5.99 10.24,-8.98 18.64,-8.98 8.32,0 14.4,3.22 18.24,9.65 4.38,-6.44 11.05,-9.65 19.99,-9.65z"/>
  <path id="14" class="fil0" d="M1102.9 28.98c7.69,0 13.84,2.5 18.45,7.51 4.6,5.01 6.91,11.72 6.91,20.12l0 41.32 -17.31 0 0 -40.11c0,-4.02 -0.98,-7.16 -2.95,-9.39 -1.97,-2.24 -4.74,-3.35 -8.32,-3.35 -3.93,0 -7,1.29 -9.19,3.89 -2.19,2.59 -3.29,6.35 -3.29,11.26l0 37.69 -17.3 0 0 -40.11c0,-4.02 -0.99,-7.16 -2.95,-9.39 -1.97,-2.24 -4.74,-3.35 -8.32,-3.35 -3.85,0 -6.91,1.32 -9.19,3.95 -2.28,2.64 -3.42,6.37 -3.42,11.2l0 37.69 -17.31 0 0 -67.07 17.31 0 0 7.11c4.02,-5.99 10.24,-8.98 18.64,-8.98 8.32,0 14.4,3.22 18.24,9.65 4.38,-6.44 11.05,-9.65 19.99,-9.65z"/>
  <path id="15" class="fil0" d="M1208.2 71.5l-50.57 0c2.24,8.41 8.54,12.61 18.92,12.61 6.62,0 11.63,-2.24 15.02,-6.71l13.95 8.05c-6.62,9.57 -16.36,14.35 -29.24,14.35 -11.09,0 -19.99,-3.36 -26.7,-10.06 -6.71,-6.71 -10.06,-15.16 -10.06,-25.35 0,-10.02 3.31,-18.42 9.93,-25.22 6.53,-6.8 15.03,-10.19 25.49,-10.19 9.93,0 18.02,3.39 24.28,10.19 6.44,6.79 9.66,15.2 9.66,25.22 0,1.88 -0.22,4.25 -0.67,7.11zm-50.84 -13.42l34.2 0c-0.98,-4.38 -2.97,-7.74 -5.97,-10.06 -3,-2.32 -6.55,-3.49 -10.66,-3.49 -4.65,0 -8.49,1.18 -11.54,3.56 -3.04,2.37 -5.05,5.7 -6.04,9.99z"/>
  <polygon id="16" class="fil0" points="1311.35,4.02 1311.35,21.73 1273.8,21.73 1273.8,44 1310.28,44 1310.28,61.7 1273.8,61.7 1273.8,97.92 1255.28,97.92 1255.28,4.02 "/>
  <path id="17" class="fil0" d="M1381.24 89.61c-6.79,6.79 -15.2,10.19 -25.22,10.19 -10.02,0 -18.42,-3.4 -25.22,-10.19 -6.79,-6.8 -10.19,-15.2 -10.19,-25.22 0,-9.93 3.4,-18.29 10.19,-25.08 6.89,-6.89 15.29,-10.33 25.22,-10.33 9.93,0 18.33,3.44 25.22,10.33 6.89,6.88 10.33,15.24 10.33,25.08 0,9.93 -3.44,18.33 -10.33,25.22zm-38.23 -11.94c3.49,3.49 7.83,5.23 13.01,5.23 5.18,0 9.53,-1.74 13.01,-5.23 3.49,-3.49 5.23,-7.91 5.23,-13.28 0,-5.36 -1.74,-9.79 -5.23,-13.28 -3.48,-3.49 -7.83,-5.23 -13.01,-5.23 -5.19,0 -9.53,1.74 -13.01,5.23 -3.39,3.57 -5.09,8 -5.09,13.28 0,5.28 1.7,9.7 5.09,13.28z"/>
  <path id="18" class="fil0" d="M1421.08 30.85l0 11.53c1.52,-4.2 4.11,-7.4 7.78,-9.59 3.67,-2.19 7.87,-3.29 12.61,-3.29l0 19.31c-5.28,-0.71 -10.02,0.36 -14.22,3.22 -4.11,2.77 -6.17,7.38 -6.17,13.82l0 32.06 -17.31 0 0 -67.07 17.31 0z"/>
  <path id="19" class="fil0" d="M1485.87 4.02l35.01 0c8.94,0 16.54,3.04 22.8,9.12 6.17,6.08 9.26,13.54 9.26,22.4 0,8.85 -3.09,16.32 -9.26,22.4 -6.26,6.08 -13.86,9.12 -22.8,9.12l-16.5 0 0 30.85 -18.51 0 0 -93.9zm18.51 45.74l16.5 0c3.93,0 7.2,-1.36 9.79,-4.09 2.59,-2.73 3.89,-6.1 3.89,-10.12 0,-4.11 -1.3,-7.51 -3.89,-10.19 -2.6,-2.69 -5.86,-4.02 -9.79,-4.02l-16.5 0 0 28.44z"/>
  <path id="20" class="fil0" d="M1580.04 30.85l0 11.53c1.52,-4.2 4.11,-7.4 7.78,-9.59 3.67,-2.19 7.87,-3.29 12.61,-3.29l0 19.31c-5.28,-0.71 -10.02,0.36 -14.22,3.22 -4.11,2.77 -6.17,7.38 -6.17,13.82l0 32.06 -17.31 0 0 -67.07 17.31 0z"/>
  <path id="21" class="fil0" d="M1665.08 89.61c-6.79,6.79 -15.2,10.19 -25.22,10.19 -10.02,0 -18.42,-3.4 -25.22,-10.19 -6.79,-6.8 -10.19,-15.2 -10.19,-25.22 0,-9.93 3.4,-18.29 10.19,-25.08 6.89,-6.89 15.29,-10.33 25.22,-10.33 9.93,0 18.33,3.44 25.22,10.33 6.89,6.88 10.33,15.24 10.33,25.08 0,9.93 -3.44,18.33 -10.33,25.22zm-38.23 -11.94c3.49,3.49 7.83,5.23 13.01,5.23 5.18,0 9.53,-1.74 13.01,-5.23 3.49,-3.49 5.23,-7.91 5.23,-13.28 0,-5.36 -1.74,-9.79 -5.23,-13.28 -3.48,-3.49 -7.83,-5.23 -13.01,-5.23 -5.19,0 -9.53,1.74 -13.01,5.23 -3.39,3.57 -5.09,8 -5.09,13.28 0,5.28 1.7,9.7 5.09,13.28z"/>
  <path id="22" class="fil0" d="M1761.8 28.98c7.69,0 13.84,2.5 18.45,7.51 4.6,5.01 6.91,11.72 6.91,20.12l0 41.32 -17.31 0 0 -40.11c0,-4.02 -0.98,-7.16 -2.95,-9.39 -1.97,-2.24 -4.74,-3.35 -8.32,-3.35 -3.93,0 -7,1.29 -9.19,3.89 -2.19,2.59 -3.29,6.35 -3.29,11.26l0 37.69 -17.3 0 0 -40.11c0,-4.02 -0.99,-7.16 -2.95,-9.39 -1.97,-2.24 -4.74,-3.35 -8.32,-3.35 -3.85,0 -6.91,1.32 -9.19,3.95 -2.28,2.64 -3.42,6.37 -3.42,11.2l0 37.69 -17.31 0 0 -67.07 17.31 0 0 7.11c4.02,-5.99 10.24,-8.98 18.64,-8.98 8.32,0 14.4,3.22 18.24,9.65 4.38,-6.44 11.05,-9.65 19.99,-9.65z"/>
  <path id="23" class="fil0" d="M1859.04 89.61c-6.79,6.79 -15.2,10.19 -25.22,10.19 -10.02,0 -18.42,-3.4 -25.22,-10.19 -6.79,-6.8 -10.19,-15.2 -10.19,-25.22 0,-9.93 3.4,-18.29 10.19,-25.08 6.89,-6.89 15.29,-10.33 25.22,-10.33 9.93,0 18.33,3.44 25.22,10.33 6.89,6.88 10.33,15.24 10.33,25.08 0,9.93 -3.44,18.33 -10.33,25.22zm-38.23 -11.94c3.49,3.49 7.83,5.23 13.01,5.23 5.18,0 9.53,-1.74 13.01,-5.23 3.49,-3.49 5.23,-7.91 5.23,-13.28 0,-5.36 -1.74,-9.79 -5.23,-13.28 -3.48,-3.49 -7.83,-5.23 -13.01,-5.23 -5.19,0 -9.53,1.74 -13.01,5.23 -3.39,3.57 -5.09,8 -5.09,13.28 0,5.28 1.7,9.7 5.09,13.28z"/>
  <path id="24" class="fil0" d="M1918.47 30.85l0 16.63 -15.15 0 0 27.9c0,2.32 0.58,4.02 1.74,5.09 1.16,1.08 2.86,1.68 5.1,1.81 2.24,0.13 5.01,0.11 8.32,-0.07l0 15.69c-11.72,1.34 -20.05,0.25 -25.02,-3.29 -4.96,-3.53 -7.44,-9.95 -7.44,-19.25l0 -27.9 -11.67 0 0 -16.63 11.67 0 0 -13.55 17.31 -5.23 0 18.78 15.15 0z"/>
  <path id="25" class="fil0" d="M1939.26 22.8c-2.86,0 -5.34,-1.05 -7.44,-3.15 -2.1,-2.1 -3.15,-4.58 -3.15,-7.44 0,-2.86 1.05,-5.36 3.15,-7.51 2.1,-2.15 4.58,-3.22 7.44,-3.22 2.95,0 5.48,1.07 7.58,3.22 2.1,2.15 3.15,4.65 3.15,7.51 0,2.86 -1.05,5.34 -3.15,7.44 -2.11,2.1 -4.63,3.15 -7.58,3.15zm8.72 75.12l-17.31 0 0 -67.07 17.31 0 0 67.07z"/>
  <path id="26" class="fil0" d="M2020.95 89.61c-6.79,6.79 -15.2,10.19 -25.22,10.19 -10.02,0 -18.42,-3.4 -25.22,-10.19 -6.79,-6.8 -10.19,-15.2 -10.19,-25.22 0,-9.93 3.4,-18.29 10.19,-25.08 6.89,-6.89 15.29,-10.33 25.22,-10.33 9.93,0 18.33,3.44 25.22,10.33 6.89,6.88 10.33,15.24 10.33,25.08 0,9.93 -3.44,18.33 -10.33,25.22zm-38.23 -11.94c3.49,3.49 7.83,5.23 13.01,5.23 5.18,0 9.53,-1.74 13.01,-5.23 3.49,-3.49 5.23,-7.91 5.23,-13.28 0,-5.36 -1.74,-9.79 -5.23,-13.28 -3.48,-3.49 -7.83,-5.23 -13.01,-5.23 -5.19,0 -9.53,1.74 -13.01,5.23 -3.39,3.57 -5.09,8 -5.09,13.28 0,5.28 1.7,9.7 5.09,13.28z"/>
  <path id="27" class="fil0" d="M2080.78 28.98c7.42,0 13.45,2.46 18.11,7.37 4.83,5.01 7.24,11.8 7.24,20.39l0 41.18 -17.3 0 0 -39.03c0,-4.39 -1.18,-7.78 -3.56,-10.2 -2.37,-2.41 -5.61,-3.62 -9.72,-3.62 -4.56,0 -8.16,1.41 -10.8,4.22 -2.64,2.82 -3.95,6.95 -3.95,12.41l0 36.22 -17.31 0 0 -67.07 17.31 0 0 7.51c4.11,-6.26 10.77,-9.39 19.99,-9.39z"/>
  <path id="28" class="fil0" d="M2211.56 89.61c-6.79,6.79 -15.2,10.19 -25.22,10.19 -10.02,0 -18.42,-3.4 -25.22,-10.19 -6.79,-6.8 -10.19,-15.2 -10.19,-25.22 0,-9.93 3.4,-18.29 10.19,-25.08 6.89,-6.89 15.29,-10.33 25.22,-10.33 9.93,0 18.33,3.44 25.22,10.33 6.89,6.88 10.33,15.24 10.33,25.08 0,9.93 -3.44,18.33 -10.33,25.22zm-38.23 -11.94c3.49,3.49 7.83,5.23 13.01,5.23 5.18,0 9.53,-1.74 13.01,-5.23 3.49,-3.49 5.23,-7.91 5.23,-13.28 0,-5.36 -1.74,-9.79 -5.23,-13.28 -3.48,-3.49 -7.83,-5.23 -13.01,-5.23 -5.19,0 -9.53,1.74 -13.01,5.23 -3.39,3.57 -5.09,8 -5.09,13.28 0,5.28 1.7,9.7 5.09,13.28z"/>
  <path id="29" class="fil0" d="M2268.04 2.15l0 16.63c-9.48,-0.62 -14.22,3.18 -14.22,11.4l0 0.67 14.22 0 0 16.63 -14.22 0 0 50.44 -17.31 0 0 -50.44 -9.66 0 0 -16.63 9.66 0 0 -0.67c0,-9.57 2.66,-16.79 7.98,-21.66 5.32,-4.88 13.17,-7 23.54,-6.37z"/>
  <polygon id="30" class="fil0" points="2310.29,97.92 2310.29,4.02 2328.81,4.02 2328.81,97.92 "/>
  <path id="31" class="fil0" d="M2382.73 28.98c7.42,0 13.45,2.46 18.11,7.37 4.83,5.01 7.24,11.8 7.24,20.39l0 41.18 -17.3 0 0 -39.03c0,-4.39 -1.18,-7.78 -3.56,-10.2 -2.37,-2.41 -5.61,-3.62 -9.72,-3.62 -4.56,0 -8.16,1.41 -10.8,4.22 -2.64,2.82 -3.95,6.95 -3.95,12.41l0 36.22 -17.31 0 0 -67.07 17.31 0 0 7.51c4.11,-6.26 10.77,-9.39 19.99,-9.39z"/>
  <path id="32" class="fil0" d="M2461.2 30.85l0 16.63 -15.15 0 0 27.9c0,2.32 0.58,4.02 1.74,5.09 1.16,1.08 2.86,1.68 5.1,1.81 2.24,0.13 5.01,0.11 8.32,-0.07l0 15.69c-11.72,1.34 -20.05,0.25 -25.02,-3.29 -4.96,-3.53 -7.44,-9.95 -7.44,-19.25l0 -27.9 -11.67 0 0 -16.63 11.67 0 0 -13.55 17.31 -5.23 0 18.78 15.15 0z"/>
  <path id="33" class="fil0" d="M2536.59 71.5l-50.57 0c2.24,8.41 8.54,12.61 18.92,12.61 6.62,0 11.63,-2.24 15.02,-6.71l13.95 8.05c-6.62,9.57 -16.36,14.35 -29.24,14.35 -11.09,0 -19.99,-3.36 -26.7,-10.06 -6.71,-6.71 -10.06,-15.16 -10.06,-25.35 0,-10.02 3.31,-18.42 9.93,-25.22 6.53,-6.8 15.03,-10.19 25.49,-10.19 9.93,0 18.02,3.39 24.28,10.19 6.44,6.79 9.66,15.2 9.66,25.22 0,1.88 -0.22,4.25 -0.67,7.11zm-50.84 -13.42l34.2 0c-0.98,-4.38 -2.97,-7.74 -5.97,-10.06 -3,-2.32 -6.55,-3.49 -10.66,-3.49 -4.65,0 -8.49,1.18 -11.54,3.56 -3.04,2.37 -5.05,5.7 -6.04,9.99z"/>
  <path id="34" class="fil0" d="M2600.17 39.17l0 -8.32 16.9 0 0 63.85c0,10.29 -3.44,18.2 -10.33,23.74 -6.79,5.46 -15.03,8.18 -24.68,8.18 -15.2,0 -25.8,-5.45 -31.79,-16.36l14.75 -8.45c3.31,6.26 9.17,9.39 17.57,9.39 5.46,0 9.75,-1.43 12.88,-4.3 3.13,-2.86 4.7,-6.93 4.7,-12.21l0 -7.24c-5.1,6.79 -12.26,10.19 -21.46,10.19 -9.48,0 -17.44,-3.31 -23.88,-9.93 -6.35,-6.79 -9.53,-14.94 -9.53,-24.41 0,-9.48 3.22,-17.57 9.66,-24.28 6.44,-6.71 14.35,-10.06 23.74,-10.06 9.21,0 16.36,3.39 21.46,10.19zm-5.3 37.36c3.53,-3.44 5.3,-7.85 5.3,-13.21 0,-5.37 -1.79,-9.7 -5.37,-13.01 -3.49,-3.49 -7.96,-5.23 -13.42,-5.23 -5.36,0 -9.88,1.74 -13.55,5.23 -3.48,3.31 -5.23,7.65 -5.23,13.01 0,5.36 1.76,9.77 5.3,13.21 3.53,3.44 8.03,5.16 13.48,5.16 5.46,0 9.95,-1.72 13.48,-5.16z"/>
  <path id="35" class="fil0" d="M2650.07 30.85l0 11.53c1.52,-4.2 4.11,-7.4 7.78,-9.59 3.67,-2.19 7.87,-3.29 12.61,-3.29l0 19.31c-5.28,-0.71 -10.02,0.36 -14.22,3.22 -4.11,2.77 -6.17,7.38 -6.17,13.82l0 32.06 -17.31 0 0 -67.07 17.31 0z"/>
  <path id="36" class="fil0" d="M2728.94 38.76l0 -7.91 17.31 0 0 67.07 -17.31 0 0 -7.91c-5.18,6.53 -12.47,9.79 -21.86,9.79 -8.94,0 -16.63,-3.4 -23.07,-10.19 -6.35,-6.89 -9.53,-15.29 -9.53,-25.22 0,-9.84 3.18,-18.2 9.53,-25.08 6.44,-6.89 14.13,-10.33 23.07,-10.33 9.39,0 16.68,3.26 21.86,9.79zm-31.93 39.3c3.49,3.49 7.91,5.23 13.28,5.23 5.37,0 9.79,-1.74 13.28,-5.23 3.58,-3.58 5.36,-8.14 5.36,-13.68 0,-5.55 -1.78,-10.06 -5.36,-13.55 -3.49,-3.57 -7.91,-5.36 -13.28,-5.36 -5.37,0 -9.79,1.79 -13.28,5.36 -3.48,3.49 -5.23,8 -5.23,13.55 0,5.55 1.74,10.1 5.23,13.68z"/>
  <path id="37" class="fil0" d="M2800.31 30.85l0 16.63 -15.15 0 0 27.9c0,2.32 0.58,4.02 1.74,5.09 1.16,1.08 2.86,1.68 5.1,1.81 2.24,0.13 5.01,0.11 8.32,-0.07l0 15.69c-11.72,1.34 -20.05,0.25 -25.02,-3.29 -4.96,-3.53 -7.44,-9.95 -7.44,-19.25l0 -27.9 -11.67 0 0 -16.63 11.67 0 0 -13.55 17.31 -5.23 0 18.78 15.15 0z"/>
  <path id="38" class="fil0" d="M2875.69 71.5l-50.57 0c2.24,8.41 8.54,12.61 18.92,12.61 6.62,0 11.63,-2.24 15.02,-6.71l13.95 8.05c-6.62,9.57 -16.36,14.35 -29.24,14.35 -11.09,0 -19.99,-3.36 -26.7,-10.06 -6.71,-6.71 -10.06,-15.16 -10.06,-25.35 0,-10.02 3.31,-18.42 9.93,-25.22 6.53,-6.8 15.03,-10.19 25.49,-10.19 9.93,0 18.02,3.39 24.28,10.19 6.44,6.79 9.66,15.2 9.66,25.22 0,1.88 -0.22,4.25 -0.67,7.11zm-50.84 -13.42l34.2 0c-0.98,-4.38 -2.97,-7.74 -5.97,-10.06 -3,-2.32 -6.55,-3.49 -10.66,-3.49 -4.65,0 -8.49,1.18 -11.54,3.56 -3.04,2.37 -5.05,5.7 -6.04,9.99z"/>
  <path id="39" class="fil0" d="M2938.74 38.76l0 -34.74 17.31 0 0 93.9 -17.31 0 0 -7.91c-5.09,6.53 -12.34,9.79 -21.73,9.79 -9.03,0 -16.77,-3.4 -23.2,-10.19 -6.35,-6.89 -9.53,-15.29 -9.53,-25.22 0,-9.84 3.18,-18.2 9.53,-25.08 6.44,-6.89 14.17,-10.33 23.2,-10.33 9.39,0 16.64,3.26 21.73,9.79zm-31.93 39.3c3.67,3.49 8.14,5.23 13.42,5.23 5.37,0 9.79,-1.74 13.28,-5.23 3.48,-3.58 5.23,-8.14 5.23,-13.68 0,-5.55 -1.74,-10.06 -5.23,-13.55 -3.49,-3.57 -7.91,-5.36 -13.28,-5.36 -5.37,0 -9.84,1.79 -13.42,5.36 -3.48,3.49 -5.23,8 -5.23,13.55 0,5.55 1.74,10.1 5.23,13.68z"/>
  <polygon id="40" class="fil0" points="3062.28,4.02 3062.28,21.73 3024.72,21.73 3024.72,44 3061.21,44 3061.21,61.7 3024.72,61.7 3024.72,97.92 3006.21,97.92 3006.21,4.02 "/>
  <path id="41" class="fil0" d="M3126 38.76l0 -7.91 17.31 0 0 67.07 -17.31 0 0 -7.91c-5.18,6.53 -12.47,9.79 -21.86,9.79 -8.94,0 -16.63,-3.4 -23.07,-10.19 -6.35,-6.89 -9.53,-15.29 -9.53,-25.22 0,-9.84 3.18,-18.2 9.53,-25.08 6.44,-6.89 14.13,-10.33 23.07,-10.33 9.39,0 16.68,3.26 21.86,9.79zm-31.93 39.3c3.49,3.49 7.91,5.23 13.28,5.23 5.37,0 9.79,-1.74 13.28,-5.23 3.58,-3.58 5.36,-8.14 5.36,-13.68 0,-5.55 -1.78,-10.06 -5.36,-13.55 -3.49,-3.57 -7.91,-5.36 -13.28,-5.36 -5.37,0 -9.79,1.79 -13.28,5.36 -3.48,3.49 -5.23,8 -5.23,13.55 0,5.55 1.74,10.1 5.23,13.68z"/>
  <path id="42" class="fil0" d="M3176.3 30.85l0 11.53c1.52,-4.2 4.11,-7.4 7.78,-9.59 3.67,-2.19 7.87,-3.29 12.61,-3.29l0 19.31c-5.28,-0.71 -10.02,0.36 -14.22,3.22 -4.11,2.77 -6.17,7.38 -6.17,13.82l0 32.06 -17.31 0 0 -67.07 17.31 0z"/>
  <path id="43" class="fil0" d="M3280.93 28.98c7.69,0 13.84,2.5 18.45,7.51 4.6,5.01 6.91,11.72 6.91,20.12l0 41.32 -17.31 0 0 -40.11c0,-4.02 -0.98,-7.16 -2.95,-9.39 -1.97,-2.24 -4.74,-3.35 -8.32,-3.35 -3.93,0 -7,1.29 -9.19,3.89 -2.19,2.59 -3.29,6.35 -3.29,11.26l0 37.69 -17.3 0 0 -40.11c0,-4.02 -0.99,-7.16 -2.95,-9.39 -1.97,-2.24 -4.74,-3.35 -8.32,-3.35 -3.85,0 -6.91,1.32 -9.19,3.95 -2.28,2.64 -3.42,6.37 -3.42,11.2l0 37.69 -17.31 0 0 -67.07 17.31 0 0 7.11c4.02,-5.99 10.24,-8.98 18.64,-8.98 8.32,0 14.4,3.22 18.24,9.65 4.38,-6.44 11.05,-9.65 19.99,-9.65z"/>
  <path id="44" class="fil0" d="M3329.62 22.8c-2.86,0 -5.34,-1.05 -7.44,-3.15 -2.1,-2.1 -3.15,-4.58 -3.15,-7.44 0,-2.86 1.05,-5.36 3.15,-7.51 2.1,-2.15 4.58,-3.22 7.44,-3.22 2.95,0 5.48,1.07 7.58,3.22 2.1,2.15 3.15,4.65 3.15,7.51 0,2.86 -1.05,5.34 -3.15,7.44 -2.11,2.1 -4.63,3.15 -7.58,3.15zm8.72 75.12l-17.31 0 0 -67.07 17.31 0 0 67.07z"/>
  <path id="45" class="fil0" d="M3391.46 28.98c7.42,0 13.45,2.46 18.11,7.37 4.83,5.01 7.24,11.8 7.24,20.39l0 41.18 -17.3 0 0 -39.03c0,-4.39 -1.18,-7.78 -3.56,-10.2 -2.37,-2.41 -5.61,-3.62 -9.72,-3.62 -4.56,0 -8.16,1.41 -10.8,4.22 -2.64,2.82 -3.95,6.95 -3.95,12.41l0 36.22 -17.31 0 0 -67.07 17.31 0 0 7.51c4.11,-6.26 10.77,-9.39 19.99,-9.39z"/>
  <path id="46" class="fil0" d="M3482.95 39.17l0 -8.32 16.9 0 0 63.85c0,10.29 -3.44,18.2 -10.33,23.74 -6.79,5.46 -15.03,8.18 -24.68,8.18 -15.2,0 -25.8,-5.45 -31.79,-16.36l14.75 -8.45c3.31,6.26 9.17,9.39 17.57,9.39 5.46,0 9.75,-1.43 12.88,-4.3 3.13,-2.86 4.7,-6.93 4.7,-12.21l0 -7.24c-5.1,6.79 -12.26,10.19 -21.46,10.19 -9.48,0 -17.44,-3.31 -23.88,-9.93 -6.35,-6.79 -9.53,-14.94 -9.53,-24.41 0,-9.48 3.22,-17.57 9.66,-24.28 6.44,-6.71 14.35,-10.06 23.74,-10.06 9.21,0 16.36,3.39 21.46,10.19zm-5.3 37.36c3.53,-3.44 5.3,-7.85 5.3,-13.21 0,-5.37 -1.79,-9.7 -5.37,-13.01 -3.49,-3.49 -7.96,-5.23 -13.42,-5.23 -5.36,0 -9.88,1.74 -13.55,5.23 -3.48,3.31 -5.23,7.65 -5.23,13.01 0,5.36 1.76,9.77 5.3,13.21 3.53,3.44 8.03,5.16 13.48,5.16 5.46,0 9.95,-1.72 13.48,-5.16z"/>
  <path id="47" class="fil0" d="M3557.66 22.8c-2.86,0 -5.34,-1.05 -7.44,-3.15 -2.1,-2.1 -3.15,-4.58 -3.15,-7.44 0,-2.86 1.05,-5.36 3.15,-7.51 2.1,-2.15 4.58,-3.22 7.44,-3.22 2.95,0 5.48,1.07 7.58,3.22 2.1,2.15 3.15,4.65 3.15,7.51 0,2.86 -1.05,5.34 -3.15,7.44 -2.11,2.1 -4.63,3.15 -7.58,3.15zm8.72 75.12l-17.31 0 0 -67.07 17.31 0 0 67.07z"/>
  <path id="48" class="fil0" d="M3619.5 28.98c7.42,0 13.45,2.46 18.11,7.37 4.83,5.01 7.24,11.8 7.24,20.39l0 41.18 -17.3 0 0 -39.03c0,-4.39 -1.18,-7.78 -3.56,-10.2 -2.37,-2.41 -5.61,-3.62 -9.72,-3.62 -4.56,0 -8.16,1.41 -10.8,4.22 -2.64,2.82 -3.95,6.95 -3.95,12.41l0 36.22 -17.31 0 0 -67.07 17.31 0 0 7.51c4.11,-6.26 10.77,-9.39 19.99,-9.39z"/>
  <polygon id="49" class="fil0" points="3686.98,4.02 3756.05,4.02 3756.05,21.73 3730.71,21.73 3730.71,97.92 3712.19,97.92 3712.19,21.73 3686.98,21.73 "/>
  <path id="50" class="fil0" d="M3774.44 30.85l0 11.53c1.52,-4.2 4.11,-7.4 7.78,-9.59 3.67,-2.19 7.87,-3.29 12.61,-3.29l0 19.31c-5.28,-0.71 -10.02,0.36 -14.22,3.22 -4.11,2.77 -6.17,7.38 -6.17,13.82l0 32.06 -17.31 0 0 -67.07 17.31 0z"/>
  <path id="51" class="fil0" d="M3813.47 22.8c-2.86,0 -5.34,-1.05 -7.44,-3.15 -2.1,-2.1 -3.15,-4.58 -3.15,-7.44 0,-2.86 1.05,-5.36 3.15,-7.51 2.1,-2.15 4.58,-3.22 7.44,-3.22 2.95,0 5.48,1.07 7.58,3.22 2.1,2.15 3.15,4.65 3.15,7.51 0,2.86 -1.05,5.34 -3.15,7.44 -2.11,2.1 -4.63,3.15 -7.58,3.15zm8.72 75.12l-17.31 0 0 -67.07 17.31 0 0 67.07z"/>
  <path id="52" class="fil0" d="M3877.05 28.98c9.03,0 16.73,3.44 23.07,10.33 6.44,6.88 9.66,15.24 9.66,25.08 0,10.02 -3.22,18.42 -9.66,25.22 -6.26,6.79 -13.95,10.19 -23.07,10.19 -9.39,0 -16.63,-3.27 -21.73,-9.79l0 7.91 -17.31 0 0 -93.9 17.31 0 0 34.74c5.09,-6.53 12.34,-9.79 21.73,-9.79zm-16.5 49.09c3.49,3.49 7.91,5.23 13.28,5.23 5.37,0 9.79,-1.74 13.28,-5.23 3.58,-3.58 5.37,-8.14 5.37,-13.68 0,-5.55 -1.79,-10.06 -5.37,-13.55 -3.48,-3.57 -7.91,-5.36 -13.28,-5.36 -5.37,0 -9.79,1.79 -13.28,5.36 -3.49,3.49 -5.23,8 -5.23,13.55 0,5.55 1.74,10.1 5.23,13.68z"/>
  <path id="53" class="fil0" d="M3972.96 38.76l0 -7.91 17.31 0 0 67.07 -17.31 0 0 -7.91c-5.18,6.53 -12.47,9.79 -21.86,9.79 -8.94,0 -16.63,-3.4 -23.07,-10.19 -6.35,-6.89 -9.53,-15.29 -9.53,-25.22 0,-9.84 3.18,-18.2 9.53,-25.08 6.44,-6.89 14.13,-10.33 23.07,-10.33 9.39,0 16.68,3.26 21.86,9.79zm-31.93 39.3c3.49,3.49 7.91,5.23 13.28,5.23 5.37,0 9.79,-1.74 13.28,-5.23 3.58,-3.58 5.36,-8.14 5.36,-13.68 0,-5.55 -1.78,-10.06 -5.36,-13.55 -3.49,-3.57 -7.91,-5.36 -13.28,-5.36 -5.37,0 -9.79,1.79 -13.28,5.36 -3.48,3.49 -5.23,8 -5.23,13.55 0,5.55 1.74,10.1 5.23,13.68z"/>
  <polygon id="54" class="fil0" points="4023.27,97.92 4005.96,97.92 4005.96,0 4023.27,0 "/>
  <path id="55" class="fil0" d="M4153.92 97.92l-20.12 0 -5.63 -16.9 -37.43 0 -5.63 16.9 -19.99 0 32.87 -93.9 22.94 0 33 93.9zm-44.4 -72.57l-12.88 38.36 25.76 0 -12.88 -38.36z"/>
  <path id="56" class="fil0" d="M4179.54 30.85l0 11.53c1.52,-4.2 4.11,-7.4 7.78,-9.59 3.67,-2.19 7.87,-3.29 12.61,-3.29l0 19.31c-5.28,-0.71 -10.02,0.36 -14.22,3.22 -4.11,2.77 -6.17,7.38 -6.17,13.82l0 32.06 -17.31 0 0 -67.07 17.31 0z"/>
  <path id="57" class="fil0" d="M4272.64 71.5l-50.57 0c2.24,8.41 8.54,12.61 18.92,12.61 6.62,0 11.63,-2.24 15.02,-6.71l13.95 8.05c-6.62,9.57 -16.36,14.35 -29.24,14.35 -11.09,0 -19.99,-3.36 -26.7,-10.06 -6.71,-6.71 -10.06,-15.16 -10.06,-25.35 0,-10.02 3.31,-18.42 9.93,-25.22 6.53,-6.8 15.03,-10.19 25.49,-10.19 9.93,0 18.02,3.39 24.28,10.19 6.44,6.79 9.66,15.2 9.66,25.22 0,1.88 -0.22,4.25 -0.67,7.11zm-50.84 -13.42l34.2 0c-0.98,-4.38 -2.97,-7.74 -5.97,-10.06 -3,-2.32 -6.55,-3.49 -10.66,-3.49 -4.65,0 -8.49,1.18 -11.54,3.56 -3.04,2.37 -5.05,5.7 -6.04,9.99z"/>
  <path id="58" class="fil0" d="M4335.81 38.76l0 -7.91 17.31 0 0 67.07 -17.31 0 0 -7.91c-5.18,6.53 -12.47,9.79 -21.86,9.79 -8.94,0 -16.63,-3.4 -23.07,-10.19 -6.35,-6.89 -9.53,-15.29 -9.53,-25.22 0,-9.84 3.18,-18.2 9.53,-25.08 6.44,-6.89 14.13,-10.33 23.07,-10.33 9.39,0 16.68,3.26 21.86,9.79zm-31.93 39.3c3.49,3.49 7.91,5.23 13.28,5.23 5.37,0 9.79,-1.74 13.28,-5.23 3.58,-3.58 5.36,-8.14 5.36,-13.68 0,-5.55 -1.78,-10.06 -5.36,-13.55 -3.49,-3.57 -7.91,-5.36 -13.28,-5.36 -5.37,0 -9.79,1.79 -13.28,5.36 -3.48,3.49 -5.23,8 -5.23,13.55 0,5.55 1.74,10.1 5.23,13.68z"/>
  <path id="59" class="fil0" d="M4384.24 49.9c0,2.86 4.07,5.32 12.21,7.38 2.86,0.62 5.46,1.36 7.78,2.21 2.32,0.85 4.67,2.06 7.04,3.62 2.37,1.57 4.23,3.64 5.57,6.24 1.34,2.59 2.01,5.59 2.01,8.98 0,6.89 -2.59,12.21 -7.78,15.96 -5.18,3.67 -11.58,5.5 -19.18,5.5 -13.77,0 -23.16,-5.32 -28.17,-15.96l15.02 -8.45c2.06,5.81 6.44,8.72 13.15,8.72 6.17,0 9.25,-1.92 9.25,-5.77 0,-2.86 -4.07,-5.32 -12.21,-7.37 -3.04,-0.81 -5.63,-1.61 -7.78,-2.42 -2.15,-0.8 -4.47,-1.99 -6.97,-3.55 -2.5,-1.57 -4.41,-3.58 -5.7,-6.04 -1.3,-2.46 -1.95,-5.34 -1.95,-8.65 0,-6.62 2.41,-11.8 7.25,-15.56 4.92,-3.84 11,-5.76 18.24,-5.76 5.46,0 10.42,1.23 14.89,3.69 4.47,2.46 8,5.97 10.6,10.53l-14.76 8.05c-2.15,-4.56 -5.72,-6.84 -10.73,-6.84 -2.24,0 -4.09,0.52 -5.57,1.55 -1.48,1.03 -2.22,2.34 -2.22,3.95z"/>
  <path id="60" class="fil0" d="M4472.77 22.8c-2.86,0 -5.34,-1.05 -7.44,-3.15 -2.1,-2.1 -3.15,-4.58 -3.15,-7.44 0,-2.86 1.05,-5.36 3.15,-7.51 2.1,-2.15 4.58,-3.22 7.44,-3.22 2.95,0 5.48,1.07 7.58,3.22 2.1,2.15 3.15,4.65 3.15,7.51 0,2.86 -1.05,5.34 -3.15,7.44 -2.11,2.1 -4.63,3.15 -7.58,3.15zm8.72 75.12l-17.31 0 0 -67.07 17.31 0 0 67.07z"/>
  <path id="61" class="fil0" d="M4534.61 28.98c7.42,0 13.45,2.46 18.11,7.37 4.83,5.01 7.24,11.8 7.24,20.39l0 41.18 -17.3 0 0 -39.03c0,-4.39 -1.18,-7.78 -3.56,-10.2 -2.37,-2.41 -5.61,-3.62 -9.72,-3.62 -4.56,0 -8.16,1.41 -10.8,4.22 -2.64,2.82 -3.95,6.95 -3.95,12.41l0 36.22 -17.31 0 0 -67.07 17.31 0 0 7.51c4.11,-6.26 10.77,-9.39 19.99,-9.39z"/>
  <path id="62" class="fil0" d="M4688.07 85.72c-9.48,9.39 -21.02,14.08 -34.61,14.08 -13.59,0 -25.13,-4.69 -34.61,-14.08 -9.39,-9.57 -14.08,-21.15 -14.08,-34.74 0,-13.68 4.7,-25.22 14.08,-34.61 9.48,-9.48 21.02,-14.22 34.61,-14.22 13.59,0 25.13,4.74 34.61,14.22 9.48,9.39 14.22,20.93 14.22,34.61 0,13.68 -4.74,25.26 -14.22,34.74zm-56.2 -12.61c5.72,5.72 12.92,8.58 21.6,8.58 8.67,0 15.87,-2.86 21.59,-8.58 5.81,-5.81 8.72,-13.19 8.72,-22.13 0,-8.95 -2.91,-16.32 -8.72,-22.14 -5.81,-5.81 -13.01,-8.72 -21.59,-8.72 -8.59,0 -15.78,2.91 -21.6,8.72 -5.81,5.81 -8.72,13.19 -8.72,22.14 0,8.94 2.91,16.32 8.72,22.13z"/>
  <path id="63" class="fil0" d="M4765.33 38.76l0 -34.74 17.31 0 0 93.9 -17.31 0 0 -7.91c-5.09,6.53 -12.34,9.79 -21.73,9.79 -9.03,0 -16.77,-3.4 -23.2,-10.19 -6.35,-6.89 -9.53,-15.29 -9.53,-25.22 0,-9.84 3.18,-18.2 9.53,-25.08 6.44,-6.89 14.17,-10.33 23.2,-10.33 9.39,0 16.64,3.26 21.73,9.79zm-31.93 39.3c3.67,3.49 8.14,5.23 13.42,5.23 5.37,0 9.79,-1.74 13.28,-5.23 3.48,-3.58 5.23,-8.14 5.23,-13.68 0,-5.55 -1.74,-10.06 -5.23,-13.55 -3.49,-3.57 -7.91,-5.36 -13.28,-5.36 -5.37,0 -9.84,1.79 -13.42,5.36 -3.48,3.49 -5.23,8 -5.23,13.55 0,5.55 1.74,10.1 5.23,13.68z"/>
  <path id="64" class="fil0" d="M4807.05 22.8c-2.86,0 -5.34,-1.05 -7.44,-3.15 -2.1,-2.1 -3.15,-4.58 -3.15,-7.44 0,-2.86 1.05,-5.36 3.15,-7.51 2.1,-2.15 4.58,-3.22 7.44,-3.22 2.95,0 5.48,1.07 7.58,3.22 2.1,2.15 3.15,4.65 3.15,7.51 0,2.86 -1.05,5.34 -3.15,7.44 -2.11,2.1 -4.63,3.15 -7.58,3.15zm8.72 75.12l-17.31 0 0 -67.07 17.31 0 0 67.07z"/>
  <path id="65" class="fil0" d="M4847.02 49.9c0,2.86 4.07,5.32 12.21,7.38 2.86,0.62 5.46,1.36 7.78,2.21 2.32,0.85 4.67,2.06 7.04,3.62 2.37,1.57 4.23,3.64 5.57,6.24 1.34,2.59 2.01,5.59 2.01,8.98 0,6.89 -2.59,12.21 -7.78,15.96 -5.18,3.67 -11.58,5.5 -19.18,5.5 -13.77,0 -23.16,-5.32 -28.17,-15.96l15.02 -8.45c2.06,5.81 6.44,8.72 13.15,8.72 6.17,0 9.25,-1.92 9.25,-5.77 0,-2.86 -4.07,-5.32 -12.21,-7.37 -3.04,-0.81 -5.63,-1.61 -7.78,-2.42 -2.15,-0.8 -4.47,-1.99 -6.97,-3.55 -2.5,-1.57 -4.41,-3.58 -5.7,-6.04 -1.3,-2.46 -1.95,-5.34 -1.95,-8.65 0,-6.62 2.41,-11.8 7.25,-15.56 4.92,-3.84 11,-5.76 18.24,-5.76 5.46,0 10.42,1.23 14.89,3.69 4.47,2.46 8,5.97 10.6,10.53l-14.76 8.05c-2.15,-4.56 -5.72,-6.84 -10.73,-6.84 -2.24,0 -4.09,0.52 -5.57,1.55 -1.48,1.03 -2.22,2.34 -2.22,3.95z"/>
  <path id="66" class="fil0" d="M4930.06 28.98c7.42,0 13.45,2.46 18.11,7.37 4.83,5.01 7.24,11.8 7.24,20.39l0 41.18 -17.3 0 0 -39.03c0,-4.39 -1.18,-7.78 -3.56,-10.2 -2.37,-2.41 -5.61,-3.62 -9.72,-3.62 -4.56,0 -8.16,1.41 -10.8,4.22 -2.64,2.82 -3.95,6.95 -3.95,12.41l0 36.22 -17.31 0 0 -93.9 17.31 0 0 34.34c4.11,-6.26 10.77,-9.39 19.99,-9.39z"/>
  <path id="67" class="fil0" d="M5021.13 38.76l0 -7.91 17.31 0 0 67.07 -17.31 0 0 -7.91c-5.18,6.53 -12.47,9.79 -21.86,9.79 -8.94,0 -16.63,-3.4 -23.07,-10.19 -6.35,-6.89 -9.53,-15.29 -9.53,-25.22 0,-9.84 3.18,-18.2 9.53,-25.08 6.44,-6.89 14.13,-10.33 23.07,-10.33 9.39,0 16.68,3.26 21.86,9.79zm-31.93 39.3c3.49,3.49 7.91,5.23 13.28,5.23 5.37,0 9.79,-1.74 13.28,-5.23 3.58,-3.58 5.36,-8.14 5.36,-13.68 0,-5.55 -1.78,-10.06 -5.36,-13.55 -3.49,-3.57 -7.91,-5.36 -13.28,-5.36 -5.37,0 -9.79,1.79 -13.28,5.36 -3.48,3.49 -5.23,8 -5.23,13.55 0,5.55 1.74,10.1 5.23,13.68z"/>
  <path class="fil1" d="M69.25 233.24l-10.93 0 -6.29 -17.34 -34.79 0 -6.3 17.34 -10.93 0 28.83 -77.31 11.6 0 28.82 77.31zm-34.68 -65.05l-13.8 38.1 27.72 0 -13.92 -38.1z"/>
  <path id="1" class="fil1" d="M104.92 176.59c6.48,0 11.67,2.04 15.57,6.13 3.9,4.08 5.85,9.62 5.85,16.62l0 33.9 -9.61 0 0 -33.35c0,-4.42 -1.21,-7.88 -3.64,-10.38 -2.43,-2.5 -5.78,-3.76 -10.05,-3.76 -4.93,0 -8.84,1.53 -11.71,4.58 -2.87,3.06 -4.31,7.6 -4.31,13.64l0 29.27 -9.61 0 0 -55.22 9.61 0 0 7.95c3.83,-6.26 9.79,-9.39 17.89,-9.39z"/>
  <path id="2" class="fil1" d="M172.17 167.98c-1.84,0 -3.38,-0.63 -4.64,-1.88 -1.25,-1.25 -1.87,-2.76 -1.87,-4.53 0,-1.77 0.62,-3.3 1.87,-4.58 1.25,-1.29 2.8,-1.93 4.64,-1.93 1.77,0 3.28,0.64 4.53,1.93 1.25,1.29 1.88,2.81 1.88,4.58 0,1.77 -0.62,3.28 -1.88,4.53 -1.25,1.25 -2.76,1.88 -4.53,1.88zm4.75 65.27l-9.61 0 0 -55.22 9.61 0 0 55.22z"/>
  <path id="3" class="fil1" d="M219.12 176.59c6.48,0 11.67,2.04 15.57,6.13 3.9,4.08 5.85,9.62 5.85,16.62l0 33.9 -9.61 0 0 -33.35c0,-4.42 -1.21,-7.88 -3.64,-10.38 -2.43,-2.5 -5.78,-3.76 -10.05,-3.76 -4.93,0 -8.84,1.53 -11.71,4.58 -2.87,3.06 -4.31,7.6 -4.31,13.64l0 29.27 -9.61 0 0 -55.22 9.61 0 0 7.95c3.83,-6.26 9.79,-9.39 17.89,-9.39z"/>
  <path id="4" class="fil1" d="M258.76 167.98c-1.84,0 -3.38,-0.63 -4.64,-1.88 -1.25,-1.25 -1.87,-2.76 -1.87,-4.53 0,-1.77 0.62,-3.3 1.87,-4.58 1.25,-1.29 2.8,-1.93 4.64,-1.93 1.77,0 3.28,0.64 4.53,1.93 1.25,1.29 1.88,2.81 1.88,4.58 0,1.77 -0.62,3.28 -1.88,4.53 -1.25,1.25 -2.76,1.88 -4.53,1.88zm4.75 65.27l-9.61 0 0 -55.22 9.61 0 0 55.22z"/>
  <path id="5" class="fil1" d="M308.24 178.02l0 9.28 -14.69 0 0 29.93c0,2.72 0.54,4.65 1.61,5.8 1.07,1.14 2.71,1.73 4.91,1.76 2.21,0.04 4.94,-0.02 8.17,-0.16l0 8.61c-8.46,1.11 -14.63,0.41 -18.49,-2.1 -3.87,-2.51 -5.8,-7.15 -5.8,-13.92l0 -29.93 -10.94 0 0 -9.28 10.94 0 0 -12.59 9.6 -2.87 0 15.46 14.69 0z"/>
  <path id="6" class="fil1" d="M324.48 167.98c-1.84,0 -3.38,-0.63 -4.64,-1.88 -1.25,-1.25 -1.87,-2.76 -1.87,-4.53 0,-1.77 0.62,-3.3 1.87,-4.58 1.25,-1.29 2.8,-1.93 4.64,-1.93 1.77,0 3.28,0.64 4.53,1.93 1.25,1.29 1.88,2.81 1.88,4.58 0,1.77 -0.62,3.28 -1.88,4.53 -1.25,1.25 -2.76,1.88 -4.53,1.88zm4.75 65.27l-9.61 0 0 -55.22 9.61 0 0 55.22z"/>
  <path id="7" class="fil1" d="M389.64 187.52l0 -9.5 9.61 0 0 55.22 -9.61 0 0 -9.5c-4.71,7.29 -11.67,10.94 -20.87,10.94 -7.81,0 -14.4,-2.8 -19.77,-8.4 -5.45,-5.67 -8.17,-12.55 -8.17,-20.65 0,-8.03 2.73,-14.87 8.17,-20.54 5.45,-5.67 12.04,-8.5 19.77,-8.5 9.2,0 16.16,3.64 20.87,10.93zm-19.66 37.88c5.6,0 10.27,-1.88 14.02,-5.63 3.76,-3.9 5.63,-8.61 5.63,-14.13 0,-5.6 -1.88,-10.27 -5.63,-14.02 -3.75,-3.83 -8.43,-5.74 -14.02,-5.74 -5.52,0 -10.16,1.91 -13.92,5.74 -3.76,3.75 -5.63,8.43 -5.63,14.02 0,5.52 1.87,10.23 5.63,14.13 3.76,3.76 8.4,5.63 13.92,5.63z"/>
  <path id="8" class="fil1" d="M443.86 178.02l0 9.28 -14.69 0 0 29.93c0,2.72 0.54,4.65 1.61,5.8 1.07,1.14 2.71,1.73 4.91,1.76 2.21,0.04 4.94,-0.02 8.17,-0.16l0 8.61c-8.46,1.11 -14.63,0.41 -18.49,-2.1 -3.87,-2.51 -5.8,-7.15 -5.8,-13.92l0 -29.93 -10.94 0 0 -9.28 10.94 0 0 -12.59 9.6 -2.87 0 15.46 14.69 0z"/>
  <path id="9" class="fil1" d="M460.1 167.98c-1.84,0 -3.38,-0.63 -4.64,-1.88 -1.25,-1.25 -1.87,-2.76 -1.87,-4.53 0,-1.77 0.62,-3.3 1.87,-4.58 1.25,-1.29 2.8,-1.93 4.64,-1.93 1.77,0 3.28,0.64 4.53,1.93 1.25,1.29 1.88,2.81 1.88,4.58 0,1.77 -0.62,3.28 -1.88,4.53 -1.25,1.25 -2.76,1.88 -4.53,1.88zm4.75 65.27l-9.61 0 0 -55.22 9.61 0 0 55.22z"/>
  <polygon id="10" class="fil1" points="500.85,222.97 518.19,178.02 528.57,178.02 506.48,233.24 495.22,233.24 473.13,178.02 483.51,178.02 "/>
  <path id="11" class="fil1" d="M587.55 210.05l-46.28 0c0.96,4.86 3.2,8.67 6.74,11.43 3.53,2.76 7.95,4.14 13.25,4.14 7.29,0 12.59,-2.69 15.9,-8.06l8.17 4.63c-5.45,8.32 -13.55,12.48 -24.3,12.48 -8.69,0 -15.83,-2.73 -21.42,-8.17 -5.45,-5.6 -8.17,-12.55 -8.17,-20.87 0,-8.4 2.69,-15.31 8.06,-20.76 5.37,-5.52 12.33,-8.28 20.87,-8.28 8.1,0 14.68,2.87 19.77,8.61 5.15,5.6 7.73,12.44 7.73,20.54 0,1.4 -0.11,2.83 -0.33,4.31zm-27.17 -24.41c-5.08,0 -9.34,1.44 -12.76,4.31 -3.42,2.87 -5.54,6.77 -6.35,11.71l36.89 0c-0.81,-5.08 -2.83,-9.01 -6.07,-11.81 -3.24,-2.8 -7.14,-4.2 -11.71,-4.2z"/>
  <path id="12" class="fil1" d="M673.13 226.29c-5.6,5.6 -12.48,8.4 -20.65,8.4 -8.17,0 -15.06,-2.8 -20.66,-8.4 -5.6,-5.6 -8.39,-12.48 -8.39,-20.65 0,-8.17 2.8,-15.06 8.39,-20.66 5.6,-5.6 12.48,-8.39 20.66,-8.39 8.17,0 15.06,2.8 20.65,8.39 5.67,5.67 8.5,12.56 8.5,20.66 0,8.1 -2.83,14.98 -8.5,20.65zm-20.65 -1c5.52,0 10.16,-1.87 13.92,-5.63 3.75,-3.76 5.63,-8.43 5.63,-14.02 0,-5.6 -1.88,-10.27 -5.63,-14.02 -3.76,-3.76 -8.4,-5.63 -13.92,-5.63 -5.45,0 -10.05,1.88 -13.81,5.63 -3.76,3.75 -5.63,8.43 -5.63,14.02 0,5.6 1.87,10.27 5.63,14.02 3.76,3.76 8.36,5.63 13.81,5.63z"/>
  <path id="13" class="fil1" d="M719.3 154.5l0 9.28c-9.72,-0.81 -14.58,3.38 -14.58,12.59l0 1.66 14.58 0 0 9.28 -14.58 0 0 45.95 -9.6 0 0 -45.95 -8.84 0 0 -9.28 8.84 0 0 -1.66c0,-7.51 2.1,-13.16 6.29,-16.95 4.2,-3.79 10.16,-5.43 17.89,-4.91z"/>
  <path id="14" class="fil1" d="M755.19 155.93l30.15 0c10.46,0 19.18,3.76 26.18,11.27 6.99,7.43 10.49,16.56 10.49,27.39 0,10.75 -3.5,19.92 -10.49,27.5 -7,7.44 -15.72,11.16 -26.18,11.16l-30.15 0 0 -77.31zm10.27 67.59l19.88 0c7.88,0 14.32,-2.76 19.33,-8.28 5.01,-5.6 7.51,-12.48 7.51,-20.66 0,-8.17 -2.5,-15.06 -7.51,-20.65 -5.01,-5.52 -11.45,-8.28 -19.33,-8.28l-19.88 0 0 57.87z"/>
  <path id="15" class="fil1" d="M886.51 210.05l-46.28 0c0.96,4.86 3.2,8.67 6.74,11.43 3.53,2.76 7.95,4.14 13.25,4.14 7.29,0 12.59,-2.69 15.9,-8.06l8.17 4.63c-5.45,8.32 -13.55,12.48 -24.3,12.48 -8.69,0 -15.83,-2.73 -21.42,-8.17 -5.45,-5.6 -8.17,-12.55 -8.17,-20.87 0,-8.4 2.69,-15.31 8.06,-20.76 5.37,-5.52 12.33,-8.28 20.87,-8.28 8.1,0 14.68,2.87 19.77,8.61 5.15,5.6 7.73,12.44 7.73,20.54 0,1.4 -0.11,2.83 -0.33,4.31zm-27.17 -24.41c-5.08,0 -9.34,1.44 -12.76,4.31 -3.42,2.87 -5.54,6.77 -6.35,11.71l36.89 0c-0.81,-5.08 -2.83,-9.01 -6.07,-11.81 -3.24,-2.8 -7.14,-4.2 -11.71,-4.2z"/>
  <path id="16" class="fil1" d="M928.36 176.59c7.73,0 14.32,2.83 19.77,8.5 5.45,5.67 8.18,12.51 8.18,20.54 0,8.1 -2.73,14.98 -8.18,20.65 -5.37,5.6 -11.96,8.4 -19.77,8.4 -9.13,0 -16.09,-3.65 -20.87,-10.94l0 31.59 -9.61 0 0 -77.31 9.61 0 0 9.5c4.78,-7.29 11.74,-10.93 20.87,-10.93zm-1.21 48.81c5.53,0 10.16,-1.88 13.92,-5.63 3.76,-3.9 5.63,-8.61 5.63,-14.13 0,-5.6 -1.88,-10.27 -5.63,-14.02 -3.75,-3.83 -8.39,-5.74 -13.92,-5.74 -5.6,0 -10.27,1.91 -14.02,5.74 -3.76,3.75 -5.63,8.43 -5.63,14.02 0,5.52 1.87,10.23 5.63,14.13 3.76,3.76 8.43,5.63 14.02,5.63z"/>
  <path id="17" class="fil1" d="M996.61 178.02l0 9.28 -14.69 0 0 29.93c0,2.72 0.54,4.65 1.61,5.8 1.07,1.14 2.71,1.73 4.91,1.76 2.21,0.04 4.94,-0.02 8.17,-0.16l0 8.61c-8.46,1.11 -14.63,0.41 -18.49,-2.1 -3.87,-2.51 -5.8,-7.15 -5.8,-13.92l0 -29.93 -10.94 0 0 -9.28 10.94 0 0 -12.59 9.6 -2.87 0 15.46 14.69 0z"/>
  <path id="18" class="fil1" d="M1014.39 234.46c-1.99,0 -3.68,-0.7 -5.08,-2.1 -1.4,-1.4 -2.1,-3.09 -2.1,-5.08 0,-1.99 0.7,-3.68 2.1,-5.08 1.4,-1.4 3.09,-2.1 5.08,-2.1 2.06,0 3.78,0.7 5.14,2.1 1.36,1.4 2.04,3.09 2.04,5.08 0,1.99 -0.68,3.68 -2.04,5.08 -1.36,1.4 -3.08,2.1 -5.14,2.1z"/>
  <path id="19" class="fil1" d="M1109.37 226.29c-5.6,5.6 -12.48,8.4 -20.65,8.4 -8.17,0 -15.06,-2.8 -20.66,-8.4 -5.6,-5.6 -8.39,-12.48 -8.39,-20.65 0,-8.17 2.8,-15.06 8.39,-20.66 5.6,-5.6 12.48,-8.39 20.66,-8.39 8.17,0 15.06,2.8 20.65,8.39 5.67,5.67 8.5,12.56 8.5,20.66 0,8.1 -2.83,14.98 -8.5,20.65zm-20.65 -1c5.52,0 10.16,-1.87 13.92,-5.63 3.75,-3.76 5.63,-8.43 5.63,-14.02 0,-5.6 -1.88,-10.27 -5.63,-14.02 -3.76,-3.76 -8.4,-5.63 -13.92,-5.63 -5.45,0 -10.05,1.88 -13.81,5.63 -3.76,3.75 -5.63,8.43 -5.63,14.02 0,5.6 1.87,10.27 5.63,14.02 3.76,3.76 8.36,5.63 13.81,5.63z"/>
  <path id="20" class="fil1" d="M1155.53 154.5l0 9.28c-9.72,-0.81 -14.58,3.38 -14.58,12.59l0 1.66 14.58 0 0 9.28 -14.58 0 0 45.95 -9.6 0 0 -45.95 -8.84 0 0 -9.28 8.84 0 0 -1.66c0,-7.51 2.1,-13.16 6.29,-16.95 4.2,-3.79 10.16,-5.43 17.89,-4.91z"/>
  <path id="21" class="fil1" d="M1253.27 233.24l-10.93 0 -6.29 -17.34 -34.79 0 -6.3 17.34 -10.93 0 28.83 -77.31 11.6 0 28.82 77.31zm-34.68 -65.05l-13.8 38.1 27.72 0 -13.92 -38.1z"/>
  <path id="22" class="fil1" d="M1305.95 187.52l0 -9.5 9.5 0 0 52.9c0,8.17 -2.77,14.51 -8.29,19 -5.6,4.56 -12.22,6.85 -19.88,6.85 -6.18,0 -11.52,-1.16 -16.01,-3.48 -4.49,-2.32 -7.88,-5.65 -10.16,-10l8.4 -4.75c3.02,6.18 9.02,9.28 18,9.28 5.74,0 10.25,-1.51 13.53,-4.53 3.28,-3.02 4.92,-7.14 4.92,-12.37l0 -7.84c-4.86,7.36 -11.78,11.04 -20.76,11.04 -7.95,0 -14.62,-2.8 -19.99,-8.39 -5.45,-5.67 -8.17,-12.48 -8.17,-20.43 0,-7.95 2.73,-14.72 8.17,-20.32 5.37,-5.6 12.04,-8.39 19.99,-8.39 9.05,0 15.97,3.64 20.76,10.93zm0 17.78c0,-5.52 -1.88,-10.16 -5.63,-13.92 -3.76,-3.76 -8.43,-5.63 -14.03,-5.63 -5.6,0 -10.27,1.88 -14.02,5.63 -3.76,3.76 -5.63,8.4 -5.63,13.92 0,5.6 1.87,10.27 5.63,14.02 3.76,3.76 8.43,5.63 14.02,5.63 5.6,0 10.27,-1.88 14.03,-5.63 3.75,-3.76 5.63,-8.43 5.63,-14.02z"/>
  <path id="23" class="fil1" d="M1339.63 178.02l0 9.28c3.16,-6.84 8.91,-10.27 17.23,-10.27l0 10.05c-4.71,-0.22 -8.76,1.03 -12.15,3.76 -3.39,2.72 -5.08,7.1 -5.08,13.14l0 29.27 -9.61 0 0 -55.22 9.61 0z"/>
  <path id="24" class="fil1" d="M1371.1 167.98c-1.84,0 -3.38,-0.63 -4.64,-1.88 -1.25,-1.25 -1.87,-2.76 -1.87,-4.53 0,-1.77 0.62,-3.3 1.87,-4.58 1.25,-1.29 2.8,-1.93 4.64,-1.93 1.77,0 3.28,0.64 4.53,1.93 1.25,1.29 1.88,2.81 1.88,4.58 0,1.77 -0.62,3.28 -1.88,4.53 -1.25,1.25 -2.76,1.88 -4.53,1.88zm4.75 65.27l-9.61 0 0 -55.22 9.61 0 0 55.22z"/>
  <path id="25" class="fil1" d="M1416.5 234.68c-8.32,0 -15.24,-2.76 -20.76,-8.29 -5.52,-5.6 -8.28,-12.51 -8.28,-20.76 0,-8.25 2.76,-15.13 8.28,-20.66 5.52,-5.6 12.44,-8.39 20.76,-8.39 5.45,0 10.34,1.31 14.69,3.92 4.34,2.61 7.58,6.13 9.72,10.55l-8.06 4.64c-1.4,-2.94 -3.55,-5.3 -6.46,-7.07 -2.91,-1.77 -6.2,-2.65 -9.88,-2.65 -5.52,0 -10.16,1.88 -13.92,5.63 -3.68,3.83 -5.52,8.5 -5.52,14.02 0,5.45 1.84,10.09 5.52,13.92 3.76,3.75 8.4,5.63 13.92,5.63 3.68,0 6.99,-0.86 9.94,-2.6 2.95,-1.73 5.19,-4.06 6.74,-7.01l8.17 4.75c-2.43,4.42 -5.85,7.91 -10.27,10.49 -4.42,2.58 -9.28,3.87 -14.57,3.87z"/>
  <path id="26" class="fil1" d="M1489.06 207.29l0 -29.27 9.61 0 0 55.22 -9.61 0 0 -7.95c-3.83,6.26 -9.79,9.39 -17.89,9.39 -6.48,0 -11.67,-2.05 -15.57,-6.13 -3.91,-4.09 -5.85,-9.63 -5.85,-16.62l0 -33.91 9.6 0 0 33.36c0,4.42 1.22,7.87 3.65,10.38 2.43,2.5 5.78,3.76 10.05,3.76 4.93,0 8.84,-1.53 11.71,-4.58 2.87,-3.05 4.31,-7.6 4.31,-13.64z"/>
  <polygon id="27" class="fil1" points="1522.85,233.24 1513.24,233.24 1513.24,152.62 1522.85,152.62 "/>
  <path id="28" class="fil1" d="M1567.58 178.02l0 9.28 -14.69 0 0 29.93c0,2.72 0.54,4.65 1.61,5.8 1.07,1.14 2.71,1.73 4.91,1.76 2.21,0.04 4.94,-0.02 8.17,-0.16l0 8.61c-8.46,1.11 -14.63,0.41 -18.49,-2.1 -3.87,-2.51 -5.8,-7.15 -5.8,-13.92l0 -29.93 -10.94 0 0 -9.28 10.94 0 0 -12.59 9.6 -2.87 0 15.46 14.69 0z"/>
  <path id="29" class="fil1" d="M1617.39 207.29l0 -29.27 9.61 0 0 55.22 -9.61 0 0 -7.95c-3.83,6.26 -9.79,9.39 -17.89,9.39 -6.48,0 -11.67,-2.05 -15.57,-6.13 -3.91,-4.09 -5.85,-9.63 -5.85,-16.62l0 -33.91 9.6 0 0 33.36c0,4.42 1.22,7.87 3.65,10.38 2.43,2.5 5.78,3.76 10.05,3.76 4.93,0 8.84,-1.53 11.71,-4.58 2.87,-3.05 4.31,-7.6 4.31,-13.64z"/>
  <path id="30" class="fil1" d="M1651.19 178.02l0 9.28c3.16,-6.84 8.91,-10.27 17.23,-10.27l0 10.05c-4.71,-0.22 -8.76,1.03 -12.15,3.76 -3.39,2.72 -5.08,7.1 -5.08,13.14l0 29.27 -9.61 0 0 -55.22 9.61 0z"/>
  <path id="31" class="fil1" d="M1727.83 210.05l-46.28 0c0.96,4.86 3.2,8.67 6.74,11.43 3.53,2.76 7.95,4.14 13.25,4.14 7.29,0 12.59,-2.69 15.9,-8.06l8.17 4.63c-5.45,8.32 -13.55,12.48 -24.3,12.48 -8.69,0 -15.83,-2.73 -21.42,-8.17 -5.45,-5.6 -8.17,-12.55 -8.17,-20.87 0,-8.4 2.69,-15.31 8.06,-20.76 5.37,-5.52 12.33,-8.28 20.87,-8.28 8.1,0 14.68,2.87 19.77,8.61 5.15,5.6 7.73,12.44 7.73,20.54 0,1.4 -0.11,2.83 -0.33,4.31zm-27.17 -24.41c-5.08,0 -9.34,1.44 -12.76,4.31 -3.42,2.87 -5.54,6.77 -6.35,11.71l36.89 0c-0.81,-5.08 -2.83,-9.01 -6.07,-11.81 -3.24,-2.8 -7.14,-4.2 -11.71,-4.2z"/>
  <path id="32" class="fil1" d="M1819.83 219.11l10.27 10.93 -8.61 4.97 -7.84 -8.4c-5.67,5.37 -13.03,8.06 -22.09,8.06 -7.81,0 -14.06,-1.99 -18.78,-5.97 -4.78,-4.12 -7.18,-9.57 -7.18,-16.34 0,-4.79 1.21,-9.15 3.64,-13.09 2.43,-3.93 5.93,-7.01 10.49,-9.22 -3.31,-4.2 -4.97,-8.88 -4.97,-14.03 0,-6.4 2.21,-11.6 6.63,-15.57 4.57,-3.97 9.94,-5.96 16.13,-5.96 5.15,0 9.83,1.42 14.02,4.25 4.2,2.83 7.22,6.68 9.06,11.54l-8.62 4.97c-1.1,-3.38 -2.92,-6.04 -5.47,-7.95 -2.54,-1.91 -5.47,-2.87 -8.78,-2.87 -3.61,0 -6.63,1.09 -9.06,3.26 -2.43,2.17 -3.64,4.92 -3.64,8.23 0,2.28 0.54,4.38 1.6,6.29 1.07,1.92 2.81,4.2 5.25,6.85l21.09 22.53c1.91,-3.9 3.24,-8.58 3.97,-14.02l8.84 5.08c-1.03,6.11 -3.02,11.6 -5.96,16.46zm-28.05 5.85c6.11,0 11.19,-1.8 15.24,-5.41l-20.87 -22.42c-3.39,1.4 -5.95,3.4 -7.68,6.02 -1.73,2.62 -2.6,5.47 -2.6,8.56 0,4.12 1.4,7.36 4.2,9.72 2.8,2.35 6.7,3.53 11.71,3.53z"/>
  <polygon id="33" class="fil1" points="1913.04,155.93 1913.04,165.66 1878.8,165.66 1878.8,190.72 1911.61,190.72 1911.61,200.44 1878.8,200.44 1878.8,233.24 1868.53,233.24 1868.53,155.93 "/>
  <polygon id="34" class="fil1" points="1935.79,199.01 1935.79,223.53 1971.68,223.53 1971.68,233.24 1925.52,233.24 1925.52,155.93 1971.13,155.93 1971.13,165.66 1935.79,165.66 1935.79,189.4 1968.37,189.4 1968.37,199.01 "/>
  <polygon id="35" class="fil1" points="1986.37,221.87 1997.41,221.87 1990.23,248.71 1981.95,248.71 "/>
  <path id="36" class="fil1" d="M2075.49 194.92l38.66 0 0 4.64c0,10.09 -3.46,18.48 -10.38,25.18 -6.92,6.63 -16.09,9.94 -27.5,9.94 -11.78,0 -21.54,-3.87 -29.27,-11.6 -7.66,-7.88 -11.48,-17.37 -11.48,-28.5 0,-11.12 3.83,-20.58 11.48,-28.38 7.73,-7.81 17.41,-11.71 29.05,-11.71 7.07,0 13.62,1.73 19.66,5.19 6.11,3.46 10.71,7.95 13.81,13.47l-8.84 5.19c-2.21,-4.19 -5.56,-7.56 -10.05,-10.1 -4.49,-2.54 -9.39,-3.81 -14.69,-3.81 -8.91,0 -16.16,2.91 -21.76,8.73 -5.67,5.82 -8.5,12.96 -8.5,21.42 0,8.47 2.83,15.61 8.5,21.43 5.74,5.74 13.14,8.61 22.2,8.61 7.59,0 13.79,-1.86 18.61,-5.58 4.82,-3.72 7.79,-8.67 8.89,-14.85l-28.38 0 0 -9.28z"/>
  <path id="37" class="fil1" d="M2172.24 226.29c-5.6,5.6 -12.48,8.4 -20.65,8.4 -8.17,0 -15.06,-2.8 -20.66,-8.4 -5.6,-5.6 -8.39,-12.48 -8.39,-20.65 0,-8.17 2.8,-15.06 8.39,-20.66 5.6,-5.6 12.48,-8.39 20.66,-8.39 8.17,0 15.06,2.8 20.65,8.39 5.67,5.67 8.5,12.56 8.5,20.66 0,8.1 -2.83,14.98 -8.5,20.65zm-20.65 -1c5.52,0 10.16,-1.87 13.92,-5.63 3.75,-3.76 5.63,-8.43 5.63,-14.02 0,-5.6 -1.88,-10.27 -5.63,-14.02 -3.76,-3.76 -8.4,-5.63 -13.92,-5.63 -5.45,0 -10.05,1.88 -13.81,5.63 -3.76,3.75 -5.63,8.43 -5.63,14.02 0,5.6 1.87,10.27 5.63,14.02 3.76,3.76 8.36,5.63 13.81,5.63z"/>
  <polygon id="38" class="fil1" points="2211.23,222.97 2228.57,178.02 2238.94,178.02 2216.86,233.24 2205.59,233.24 2183.5,178.02 2193.89,178.02 "/>
  <path id="39" class="fil1" d="M2297.92 210.05l-46.28 0c0.96,4.86 3.2,8.67 6.74,11.43 3.53,2.76 7.95,4.14 13.25,4.14 7.29,0 12.59,-2.69 15.9,-8.06l8.17 4.63c-5.45,8.32 -13.55,12.48 -24.3,12.48 -8.69,0 -15.83,-2.73 -21.42,-8.17 -5.45,-5.6 -8.17,-12.55 -8.17,-20.87 0,-8.4 2.69,-15.31 8.06,-20.76 5.37,-5.52 12.33,-8.28 20.87,-8.28 8.1,0 14.68,2.87 19.77,8.61 5.15,5.6 7.73,12.44 7.73,20.54 0,1.4 -0.11,2.83 -0.33,4.31zm-27.17 -24.41c-5.08,0 -9.34,1.44 -12.76,4.31 -3.42,2.87 -5.54,6.77 -6.35,11.71l36.89 0c-0.81,-5.08 -2.83,-9.01 -6.07,-11.81 -3.24,-2.8 -7.14,-4.2 -11.71,-4.2z"/>
  <path id="40" class="fil1" d="M2318.91 178.02l0 9.28c3.16,-6.84 8.91,-10.27 17.23,-10.27l0 10.05c-4.71,-0.22 -8.76,1.03 -12.15,3.76 -3.39,2.72 -5.08,7.1 -5.08,13.14l0 29.27 -9.61 0 0 -55.22 9.61 0z"/>
  <path id="41" class="fil1" d="M2373.02 176.59c6.48,0 11.67,2.04 15.57,6.13 3.9,4.08 5.85,9.62 5.85,16.62l0 33.9 -9.61 0 0 -33.35c0,-4.42 -1.21,-7.88 -3.64,-10.38 -2.43,-2.5 -5.78,-3.76 -10.05,-3.76 -4.93,0 -8.84,1.53 -11.71,4.58 -2.87,3.06 -4.31,7.6 -4.31,13.64l0 29.27 -9.61 0 0 -55.22 9.61 0 0 7.95c3.83,-6.26 9.79,-9.39 17.89,-9.39z"/>
  <path id="42" class="fil1" d="M2467.45 176.59c6.26,0 11.28,2.02 15.08,6.07 3.79,4.05 5.68,9.47 5.68,16.24l0 34.35 -9.61 0 0 -34.02c0,-4.2 -1.09,-7.49 -3.26,-9.88 -2.17,-2.39 -5.13,-3.59 -8.89,-3.59 -4.27,0 -7.6,1.42 -10,4.25 -2.39,2.83 -3.59,7.02 -3.59,12.54l0 30.7 -9.61 0 0 -34.02c0,-4.2 -1.05,-7.49 -3.15,-9.88 -2.1,-2.39 -4.95,-3.59 -8.56,-3.59 -4.2,0 -7.6,1.46 -10.21,4.37 -2.62,2.91 -3.92,7.05 -3.92,12.42l0 30.7 -9.61 0 0 -55.22 9.61 0 0 7.4c3.75,-5.89 9.24,-8.84 16.45,-8.84 7.44,0 12.85,3.13 16.24,9.39 3.83,-6.26 9.61,-9.39 17.34,-9.39z"/>
  <path id="43" class="fil1" d="M2554.58 210.05l-46.28 0c0.96,4.86 3.2,8.67 6.74,11.43 3.53,2.76 7.95,4.14 13.25,4.14 7.29,0 12.59,-2.69 15.9,-8.06l8.17 4.63c-5.45,8.32 -13.55,12.48 -24.3,12.48 -8.69,0 -15.83,-2.73 -21.42,-8.17 -5.45,-5.6 -8.17,-12.55 -8.17,-20.87 0,-8.4 2.69,-15.31 8.06,-20.76 5.37,-5.52 12.33,-8.28 20.87,-8.28 8.1,0 14.68,2.87 19.77,8.61 5.15,5.6 7.73,12.44 7.73,20.54 0,1.4 -0.11,2.83 -0.33,4.31zm-27.17 -24.41c-5.08,0 -9.34,1.44 -12.76,4.31 -3.42,2.87 -5.54,6.77 -6.35,11.71l36.89 0c-0.81,-5.08 -2.83,-9.01 -6.07,-11.81 -3.24,-2.8 -7.14,-4.2 -11.71,-4.2z"/>
  <path id="44" class="fil1" d="M2593.46 176.59c6.48,0 11.67,2.04 15.57,6.13 3.9,4.08 5.85,9.62 5.85,16.62l0 33.9 -9.61 0 0 -33.35c0,-4.42 -1.21,-7.88 -3.64,-10.38 -2.43,-2.5 -5.78,-3.76 -10.05,-3.76 -4.93,0 -8.84,1.53 -11.71,4.58 -2.87,3.06 -4.31,7.6 -4.31,13.64l0 29.27 -9.61 0 0 -55.22 9.61 0 0 7.95c3.83,-6.26 9.79,-9.39 17.89,-9.39z"/>
  <path id="45" class="fil1" d="M2658.28 178.02l0 9.28 -14.69 0 0 29.93c0,2.72 0.54,4.65 1.61,5.8 1.07,1.14 2.71,1.73 4.91,1.76 2.21,0.04 4.94,-0.02 8.17,-0.16l0 8.61c-8.46,1.11 -14.63,0.41 -18.49,-2.1 -3.87,-2.51 -5.8,-7.15 -5.8,-13.92l0 -29.93 -10.94 0 0 -9.28 10.94 0 0 -12.59 9.6 -2.87 0 15.46 14.69 0z"/>
  <path id="46" class="fil1" d="M2744.21 226.29c-5.6,5.6 -12.48,8.4 -20.65,8.4 -8.17,0 -15.06,-2.8 -20.66,-8.4 -5.6,-5.6 -8.39,-12.48 -8.39,-20.65 0,-8.17 2.8,-15.06 8.39,-20.66 5.6,-5.6 12.48,-8.39 20.66,-8.39 8.17,0 15.06,2.8 20.65,8.39 5.67,5.67 8.5,12.56 8.5,20.66 0,8.1 -2.83,14.98 -8.5,20.65zm-20.65 -1c5.52,0 10.16,-1.87 13.92,-5.63 3.75,-3.76 5.63,-8.43 5.63,-14.02 0,-5.6 -1.88,-10.27 -5.63,-14.02 -3.76,-3.76 -8.4,-5.63 -13.92,-5.63 -5.45,0 -10.05,1.88 -13.81,5.63 -3.76,3.75 -5.63,8.43 -5.63,14.02 0,5.6 1.87,10.27 5.63,14.02 3.76,3.76 8.36,5.63 13.81,5.63z"/>
  <path id="47" class="fil1" d="M2790.37 154.5l0 9.28c-9.72,-0.81 -14.58,3.38 -14.58,12.59l0 1.66 14.58 0 0 9.28 -14.58 0 0 45.95 -9.6 0 0 -45.95 -8.84 0 0 -9.28 8.84 0 0 -1.66c0,-7.51 2.1,-13.16 6.29,-16.95 4.2,-3.79 10.16,-5.43 17.89,-4.91z"/>
  <path id="48" class="fil1" d="M2822.18 194.59c0,-11.19 3.87,-20.65 11.6,-28.38 7.73,-7.81 17.19,-11.71 28.38,-11.71 11.19,0 20.65,3.9 28.38,11.71 7.81,7.73 11.71,17.19 11.71,28.38 0,11.12 -3.9,20.58 -11.71,28.38 -7.73,7.81 -17.19,11.71 -28.38,11.71 -11.19,0 -20.65,-3.91 -28.38,-11.71 -7.73,-7.87 -11.6,-17.34 -11.6,-28.38zm69.8 0c0,-8.54 -2.87,-15.68 -8.61,-21.42 -5.6,-5.82 -12.67,-8.73 -21.21,-8.73 -8.47,0 -15.57,2.91 -21.31,8.73 -5.67,5.82 -8.5,12.96 -8.5,21.42 0,8.4 2.83,15.54 8.5,21.43 5.74,5.74 12.85,8.61 21.31,8.61 8.54,0 15.61,-2.87 21.21,-8.61 5.74,-5.89 8.61,-13.03 8.61,-21.43z"/>
  <path id="49" class="fil1" d="M2959.34 187.52l0 -31.59 9.61 0 0 77.31 -9.61 0 0 -9.5c-4.71,7.29 -11.67,10.94 -20.87,10.94 -7.81,0 -14.4,-2.8 -19.77,-8.4 -5.45,-5.67 -8.17,-12.55 -8.17,-20.65 0,-8.03 2.73,-14.87 8.17,-20.54 5.45,-5.67 12.04,-8.5 19.77,-8.5 9.2,0 16.16,3.64 20.87,10.93zm-19.66 37.88c5.6,0 10.27,-1.88 14.02,-5.63 3.76,-3.9 5.63,-8.61 5.63,-14.13 0,-5.6 -1.88,-10.27 -5.63,-14.02 -3.75,-3.83 -8.43,-5.74 -14.02,-5.74 -5.52,0 -10.16,1.91 -13.92,5.74 -3.76,3.75 -5.63,8.43 -5.63,14.02 0,5.52 1.87,10.23 5.63,14.13 3.76,3.76 8.4,5.63 13.92,5.63z"/>
  <path id="50" class="fil1" d="M2988.38 167.98c-1.84,0 -3.38,-0.63 -4.64,-1.88 -1.25,-1.25 -1.87,-2.76 -1.87,-4.53 0,-1.77 0.62,-3.3 1.87,-4.58 1.25,-1.29 2.8,-1.93 4.64,-1.93 1.77,0 3.28,0.64 4.53,1.93 1.25,1.29 1.88,2.81 1.88,4.58 0,1.77 -0.62,3.28 -1.88,4.53 -1.25,1.25 -2.76,1.88 -4.53,1.88zm4.75 65.27l-9.61 0 0 -55.22 9.61 0 0 55.22z"/>
  <path id="51" class="fil1" d="M3015.99 192.93c0,3.53 3.65,6.29 10.93,8.28 2.73,0.59 5.03,1.2 6.9,1.82 1.88,0.62 3.94,1.57 6.18,2.81 2.24,1.25 3.96,2.91 5.13,4.97 1.18,2.06 1.77,4.49 1.77,7.29 0,5.01 -1.95,9.02 -5.85,12.04 -3.91,3.02 -8.84,4.53 -14.8,4.53 -5.3,0 -9.89,-1.16 -13.75,-3.48 -3.87,-2.32 -6.61,-5.47 -8.23,-9.45l8.28 -4.75c0.89,2.65 2.54,4.75 4.97,6.29 2.43,1.55 5.34,2.32 8.73,2.32 3.31,0 5.96,-0.62 7.95,-1.88 1.99,-1.25 2.98,-3.13 2.98,-5.63 0,-3.76 -3.64,-6.48 -10.93,-8.17 -2.43,-0.66 -4.27,-1.18 -5.53,-1.55 -1.25,-0.37 -2.96,-1.03 -5.13,-1.99 -2.17,-0.96 -3.81,-1.97 -4.91,-3.04 -1.11,-1.07 -2.12,-2.5 -3.04,-4.31 -0.92,-1.8 -1.38,-3.81 -1.38,-6.02 0,-4.78 1.84,-8.72 5.52,-11.81 3.76,-3.09 8.43,-4.64 14.03,-4.64 4.49,0 8.48,1.01 11.98,3.04 3.5,2.02 6.13,4.84 7.9,8.44l-8.06 4.53c-1.99,-4.71 -5.93,-7.07 -11.81,-7.07 -2.8,0 -5.14,0.66 -7.02,1.99 -1.87,1.32 -2.81,3.13 -2.81,5.41z"/>
  <path id="52" class="fil1" d="M3085.24 176.59c6.48,0 11.67,2.04 15.57,6.13 3.9,4.08 5.85,9.62 5.85,16.62l0 33.9 -9.61 0 0 -33.35c0,-4.42 -1.21,-7.88 -3.64,-10.38 -2.43,-2.5 -5.78,-3.76 -10.05,-3.76 -4.93,0 -8.84,1.53 -11.71,4.58 -2.87,3.06 -4.31,7.6 -4.31,13.64l0 29.27 -9.61 0 0 -77.31 9.61 0 0 30.04c3.83,-6.26 9.79,-9.39 17.89,-9.39z"/>
  <path id="53" class="fil1" d="M3165.75 187.52l0 -9.5 9.61 0 0 55.22 -9.61 0 0 -9.5c-4.71,7.29 -11.67,10.94 -20.87,10.94 -7.81,0 -14.4,-2.8 -19.77,-8.4 -5.45,-5.67 -8.17,-12.55 -8.17,-20.65 0,-8.03 2.73,-14.87 8.17,-20.54 5.45,-5.67 12.04,-8.5 19.77,-8.5 9.2,0 16.16,3.64 20.87,10.93zm-19.66 37.88c5.6,0 10.27,-1.88 14.02,-5.63 3.76,-3.9 5.63,-8.61 5.63,-14.13 0,-5.6 -1.88,-10.27 -5.63,-14.02 -3.75,-3.83 -8.43,-5.74 -14.02,-5.74 -5.52,0 -10.16,1.91 -13.92,5.74 -3.76,3.75 -5.63,8.43 -5.63,14.02 0,5.52 1.87,10.23 5.63,14.13 3.76,3.76 8.4,5.63 13.92,5.63z"/>
 </g>
</svg>
