<?xml version="1.0" encoding="UTF-8"?>
<!DOCTYPE svg PUBLIC "-//W3C//DTD SVG 1.1//EN" "http://www.w3.org/Graphics/SVG/1.1/DTD/svg11.dtd">
<!-- Creator: CorelDRAW 2019 (64-Bit) -->
<svg xmlns="http://www.w3.org/2000/svg" xml:space="preserve" width="1in" height="0.440456in" version="1.1" style="shape-rendering:geometricPrecision; text-rendering:geometricPrecision; image-rendering:optimizeQuality; fill-rule:evenodd; clip-rule:evenodd"
viewBox="0 0 97.78 43.07"
 xmlns:xlink="http://www.w3.org/1999/xlink">
 <defs>
  <style type="text/css">
   <![CDATA[
    .fil2 {fill:#176B3E}
    .fil3 {fill:#1B719F}
    .fil0 {fill:#2E3092}
    .fil1 {fill:white}
    .fil4 {fill:#1B719F;fill-rule:nonzero}
   ]]>
  </style>
 </defs>
 <g id="Layer_x0020_1">
  <metadata id="CorelCorpID_0Corel-Layer"/>
  <g id="_113954367792">
   <g id="NCDS_x0020_Logo_x0020_CDR.cdr">
    <polygon class="fil0" points="63.42,0 97.78,0 97.78,43.07 63.42,43.07 "/>
    <path class="fil1" d="M80.41 4.61l0 0.08c0,0.28 0.43,1 0.65,1l0.11 0c0.18,0 0.77,-0.89 0.77,-1.15l0 -0.12c0,-0.24 -0.36,-0.96 -0.65,-0.96l-0.08 0c-0.12,0 -0.81,0.97 -0.81,1.15z"/>
    <path class="fil1" d="M77.18 5.23l0 0.08c0,0.35 0.66,0.81 1.04,0.81l0.11 0c0.17,0 0.92,-0.27 0.92,-0.46l0 -0.19c0,-0.66 -2.07,-0.87 -2.07,-0.23z"/>
    <path class="fil1" d="M83.75 5.38l0 0.11c0,0.72 1.73,0.32 1.73,-0.27 0,-0.29 -0.31,-0.42 -0.61,-0.42l-0.31 0c-0.28,0 -0.81,0.37 -0.81,0.58z"/>
    <path class="fil1" d="M81.29 6.5l-0.12 0c-0.4,0 -0.55,-0.62 -1.31,-0.62 -0.17,0 -0.46,0.06 -0.46,0.23l0 0.15c0,0.16 0.34,1.06 0.52,1.17 0.43,0.27 0.9,-0.08 0.9,0.83l0 0.27c0,0.19 -0.17,0.35 -0.35,0.35 -0.69,0 -1.03,-0.8 -1.39,-1.18 -0.3,-0.31 -1.01,-1.01 -1.56,-1.01 -0.21,0 -0.26,0.08 -0.5,0.08l-0.23 0c-0.22,0 -0.66,-0.42 -1.31,-0.42l-0.31 0c-0.4,0 -1.15,0.07 -1.15,0.42 0,0.34 0.4,0.47 0.67,0.6 0.23,0.12 0.58,0.36 0.91,0.36l0.23 0c0.3,0 0.59,-0.27 0.69,-0.27l0.19 0c0.35,0 0.52,0.58 0.76,0.82 0.24,0.24 0.85,0.47 0.85,0.76 0,0.44 -0.77,0.38 -0.77,0.77 0,0.17 0.05,0.21 0.08,0.35l1.57 0c0.49,0 0.76,-0.35 1.07,-0.35 0.67,0 0.65,2.07 0.31,2.07 -0.34,0 -0.57,-0.22 -0.76,-0.39 -0.19,-0.18 -0.49,-0.31 -0.7,-0.45 -0.23,-0.16 -0.56,-0.19 -0.82,-0.33 -0.28,-0.16 -0.46,-0.37 -0.68,-0.51 -0.39,0 -1.17,-0.06 -1.44,-0.17 -0.46,-0.19 -0.52,-0.5 -0.72,-0.93 -0.23,-0.48 -0.39,-0.54 -0.75,-0.87 -0.12,-0.11 -0.91,-0.53 -1.12,-0.53l-0.04 0c-0.67,0 -0.05,1.11 -0.84,1.11 -0.36,0 -0.7,-0.27 -0.84,-0.27l-0.54 0c-0.3,0 -1.04,0.18 -1.04,0.42l0 0.08c0,0.33 0.5,0.44 0.5,0.77 0,0.35 -0.35,0.32 -0.63,0.41 -0.25,0.08 -0.46,0.23 -0.7,0.34 -0.27,0.12 -1.2,0.58 -1.2,0.87 0,0.18 0.16,0.31 0.31,0.31 1.19,0 1.82,-0.22 2.3,-0.97 0.21,-0.34 0.48,-0.61 0.88,-0.78 0.21,-0.09 1.06,-0.37 1.28,-0.37l0.04 0c0.17,0 0.46,0.15 0.46,0.27 0,0.67 -1,0.68 -1,1.23l0 0.04c0,0.41 0.71,0.5 1.15,0.5l0.54 0c0.72,0 1.07,-1 1.88,-1l0.08 0c0.21,0 1.62,0.31 1.76,0.39 0.47,0.27 0.95,0.5 1.32,0.87 0.37,0.37 0.64,0.76 0.86,1.29 0.09,0.22 0.28,1.59 0.28,1.9l0 0.04c0,0.8 -0.15,1.47 -0.15,2.34 0,0.41 0,0.82 0,1.23 0,0.23 -0.07,0.31 -0.1,0.51 -0.04,0.2 0,0.41 -0.04,0.62 -0.06,0.36 -0.05,0.78 -0.09,1.14 -0.04,0.38 -0.14,0.76 -0.19,1.08 -0.05,0.33 -0.12,0.73 -0.12,1.11 0,0.47 -0.12,0.73 -0.12,1.15l0 1.23c0,0.46 0.64,0.69 1.07,0.69l0.08 0c0.83,0 0.77,-0.88 0.77,-1.73 0,-0.74 -0.04,-1.75 -0.11,-2.42 -0.04,-0.4 -0.05,-0.72 -0.14,-1.09 -0.09,-0.4 -0.08,-0.73 -0.13,-1.14 -0.05,-0.43 0.02,-0.81 -0.06,-1.21 -0.07,-0.38 -0.02,-0.84 -0.02,-1.25 0,-0.69 -0.08,-1.69 0,-2.42 0.06,-0.51 0.33,-1.63 0.55,-1.98 0.43,-0.7 0.42,-0.88 1.05,-1.45 0.21,-0.19 1.37,-0.83 1.7,-0.83l0.27 0c0.32,0 0.42,0.68 0.86,0.91 0.32,0.17 1,0.32 1.49,0.32 0.23,0 0.42,-0.07 0.42,-0.31 0,-0.45 -0.69,-0.75 -0.69,-1.11l0 -0.08c0,-0.57 0.87,-0.23 1.19,-0.2 0.75,0.08 0.89,-0.08 1.58,0.15 0.63,0.21 0.48,0.48 0.74,0.95 0.16,0.31 0.64,0.63 1.1,0.63 0.43,0 1.11,-0.01 1.11,-0.42 0,-0.13 -0.8,-0.71 -0.94,-0.79 -0.2,-0.12 -0.35,-0.23 -0.63,-0.25 -0.26,-0.01 -0.58,-0.05 -0.58,-0.31 0,-0.27 0.5,-0.39 0.5,-0.62l0 -0.08c0,-0.24 -1.11,-0.58 -1.31,-0.58l-0.27 0c-0.35,0 -0.88,0.73 -1.34,0.73l-0.12 0c-0.09,0 -0.31,-0.16 -0.31,-0.27l0 -0.08c0,-0.35 0.46,-0.38 0.46,-0.81 0,-0.12 -0.11,-0.23 -0.23,-0.23 -0.11,0 -1.67,0.52 -1.8,0.58 -0.53,0.26 -0.61,0.9 -1.22,1.2 -0.6,0.29 -1.07,0.42 -1.65,0.77 -0.19,0.11 -0.53,0.37 -0.68,0.51 -0.18,0.19 -0.38,0.51 -0.72,0.51l-0.08 0c-0.09,0 -0.27,-0.17 -0.27,-0.27l-0.02 -0.04 0.09 -0.57c0.05,-0.33 -0.08,-0.59 -0.04,-0.92 0.03,-0.19 0.29,-0.5 0.46,-0.5l0.15 0c0.18,0 0.51,0.46 0.88,0.46l0.46 0c0.34,0 1.15,-0.3 1.15,-0.58l0 -0.11c0,-0.31 -0.81,-0.05 -0.81,-0.58l0 -0.04c0,-0.29 0.77,-1.04 1.08,-1.04l0.08 0c0.37,0 0.77,0.27 1,0.27l0.58 0c0.48,0 1.46,-0.37 1.46,-0.77l0 -0.04c0,-0.2 -0.98,-0.69 -1.27,-0.69l-0.15 0c-0.35,0 -1.08,0.81 -1.5,0.81 -0.49,0 -0.62,-0.35 -0.92,-0.35l-0.19 0c-0.21,0 -0.48,0.26 -0.63,0.37 -0.31,0.23 -0.25,0.3 -0.44,0.59 -0.22,0.33 -0.49,1.08 -1,1.08l-0.15 0c-0.15,0 -0.27,-0.22 -0.27,-0.39 0,-0.86 0.28,-1.11 0.83,-1.44 0.25,-0.15 1.09,-0.91 1.09,-1.21 0,-0.11 -0.12,-0.27 -0.23,-0.27l-0.11 0c-0.54,0 -1.27,0.84 -1.54,0.84z"/>
    <path class="fil1" d="M77.26 3.69l-0.15 0c-0.38,0 -0.99,0.33 -1.15,0.58 -0.27,0.45 0.03,0.84 -0.89,0.84 -0.61,-0 -1.11,0.03 -1.65,0.08 -0.38,0.03 -1.07,0.34 -1.07,0.69l0 0.11c0,0.17 0.08,0.14 0.08,0.31l0 0.12c0,0.31 -0.31,0.81 -0.51,0.95 -0.41,0.28 -0.85,0.06 -1.3,0.2 -0.2,0.06 -0.39,0.07 -0.6,0.13 -0.22,0.07 -0.35,0.15 -0.52,0.21 -0.34,0.12 -0.95,0.08 -0.95,0.54 0,0.24 0.38,0.55 0.38,0.69l0 0.04c0,0.43 -0.47,0.48 -0.76,0.63 -0.29,0.14 -0.61,0.4 -0.78,0.64 -0.18,0.24 -0.42,0.57 -0.55,0.87 -0.06,0.14 -0.22,1.02 -0.22,1.2l0 0.15c0,0.23 0.2,0.42 0.42,0.42 0.36,0 0.59,-0.08 1.04,-0.08 0.34,0 0.78,0.02 1.11,0 0.7,-0.05 1.25,-0.58 1.69,-0.58l0.15 0c0.12,0 0.39,0.14 0.55,0.18 0.22,0.05 0.4,0.05 0.62,0.11 0.29,0.08 0.99,0.18 1.32,0.18 0.81,0 1.01,-0.13 1.61,-0.31 0.42,-0.13 1.03,-0.49 1.46,-0.49l0.15 0c0.5,0 1.31,0.76 1.59,1.06 0.35,0.39 0.18,0.51 0.36,0.99 0.13,0.36 0.32,0.48 0.32,1.02l0 0.23c0,0.45 -0.04,0.92 -0.04,1.31 0,0.5 -0.07,0.87 -0.08,1.27 -0.01,0.53 -0.03,0.8 -0.08,1.27 -0.03,0.31 -0.06,0.97 -0.1,1.28 -0.12,0.76 -0.13,1.74 -0.12,2.6 0,0.32 -0.05,0.95 -0.12,1.22 -0.09,0.35 -0.22,0.73 -0.22,1.16 0,0.75 -0.04,2.15 0.15,2.66 0.27,0.74 0.2,1.75 0.2,2.64 0,0.82 0.38,1.25 0.38,2.03 0,0.18 -0.19,0.38 -0.19,0.58l0 0.04c0,0.07 0.07,0.15 0.12,0.15 0.13,0 0.27,-0.07 0.27,-0.19l0 -0.23c0,-0.21 -0.08,-0.21 -0.08,-0.42 0,-0.08 0.17,-0.28 0.15,-0.5l-0.04 -1.15 0 -0.08c0,-0.26 -0.14,-0.6 -0.18,-0.89 -0.03,-0.23 -0.05,-0.82 -0.05,-1.07 0,-0.91 -0.31,-1.06 -0.31,-1.92l0 -0.38c0,-0.8 0.23,-1.77 0.23,-2.46 -0,-0.43 0.08,-0.84 0.07,-1.27 -0,-0.45 -0.01,-0.9 0.05,-1.3 0.06,-0.39 0.13,-0.71 0.19,-1.16 0.05,-0.39 0.12,-0.8 0.18,-1.16 0.13,-0.77 0.12,-1.69 0.12,-2.56 0,-0.72 0.04,-1.25 0.04,-1.92 -0,-0.39 -0.09,-0.57 -0.22,-0.86 -0.12,-0.28 -0.16,-0.55 -0.27,-0.81 -0.25,-0.59 -1.72,-1.79 -2.51,-1.79l-0.04 0c-0.26,0 -1.03,0.47 -1.36,0.6 -0.52,0.21 -0.97,0.29 -1.67,0.29l-0.08 0c-0.29,0 -0.95,-0.16 -1.22,-0.24 -0.21,-0.06 -0.35,-0.08 -0.53,-0.2 -0.15,-0.1 -0.29,-0.29 -0.48,-0.29l-0.04 0c-0.3,0 -1.21,0.81 -2.15,0.81l-1 0c-0.23,0 -0.46,-0.23 -0.46,-0.46l0 -0.46c0,-0.43 0.58,-1.01 0.86,-1.22 0.25,-0.2 1.26,-0.54 1.26,-0.82l0 -0.08c0,-0.25 -0.31,-0.37 -0.31,-0.65 0,-0.34 0.7,-0.53 1.01,-0.68 0.49,-0.24 0.89,-0.13 1.52,-0.13l0.08 0c0.45,0 0.51,-0.32 0.69,-0.58 0.18,-0.26 0.34,-0.43 0.54,-0.73 0,-0.54 -0.13,-1.04 0.42,-1.04l1.69 0c0.24,0 0.29,0.08 0.54,0.08l0.15 0c0.17,0 0.38,-0.18 0.38,-0.34 0,-0.45 -0.14,-0.7 0.16,-0.95 0.17,-0.14 0.75,-0.16 1.07,-0.16l0.19 0c0.5,0 0.65,0.19 1.04,0.19 0.59,0 1.97,-1.69 2.27,-1.69l0.08 0c0.29,0 0.42,0.28 0.57,0.43 0.19,0.19 0.36,0.28 0.56,0.48 0.26,0.26 0.66,0.97 1.06,0.97 0.62,0 1.08,-0.54 1.54,-0.54 0.36,0 1.65,0.51 1.65,0.84l0 0.04c0,0.17 -0.11,0.23 -0.11,0.42 0,0.42 2.57,1.45 2.57,1.73l0 0.19c0,0.16 -0.27,0.29 -0.27,0.46 0,0.4 1.19,0.6 1.56,0.75 0.29,0.12 0.57,0.19 0.86,0.29 0.25,0.08 0.72,0.07 0.72,0.43 0,0.28 -0.19,0.44 -0.19,0.58 0,0.27 0.33,0.32 0.5,0.42 0.2,0.12 0.35,0.27 0.55,0.41 0.21,0.14 0.98,0.68 0.98,0.94l0 0.04c0,0.55 -0.91,0.39 -0.92,0.92l0.38 0c0.26,0 0.51,-0.19 0.72,-0.28 0.2,-0.09 0.67,-0.13 0.67,-0.37l0 -0.04c0,-0.2 -1.01,-1.25 -1.19,-1.38 -0.21,-0.15 -0.47,-0.39 -0.7,-0.57 -0.33,-0.26 -0.3,-0.46 -0.3,-1.01 -0.36,-0.53 -2.73,-1.01 -2.73,-1.34l0 -0.08c0,-0.24 0.12,-0.28 0.12,-0.46 0,-0.25 -1.07,-0.63 -1.33,-0.86 -0.28,-0.24 -1.24,-0.63 -1.24,-0.99l0 -0.08c0,-0.21 0.11,-0.18 0.11,-0.31l0 -0.08c0,-0.41 -1.4,-1 -1.92,-1l-0.27 -0.02 -1.49 0.25 -0.15 0c-0.52,0 -1.84,-2 -2.23,-2l-0.12 0c-0.23,0 -0.59,0.54 -0.78,0.72 -0.24,0.24 -0.53,0.48 -0.79,0.71 -0.94,0.86 -1.11,0.34 -2.32,0.34z"/>
    <path class="fil1" d="M81.9 15.33l0 3.11c0,0.39 0.12,2.01 0.22,2.28 0.16,0.47 0.21,1.64 0.21,2.29 0,0.32 -0.04,0.94 0,1.23 0.05,0.35 0.22,0.55 0.15,1.11 -0.09,0.81 -0.11,1.49 -0.11,2.31l0 0.42c0,0.46 -0.19,0.69 -0.19,1.23 0,0.49 -0.08,0.89 -0.08,1.35 0,0.35 0.09,0.64 -0.03,0.97 -0.04,0.13 -0.2,0.78 -0.2,0.91l0 1.11c0,0.2 0.17,0.42 0.38,0.42 0.12,0 0.19,-0.14 0.19,-0.27l0 -0.04c0,-0.25 -0.08,-0.29 -0.08,-0.54l0 -0.19c0,-0.71 0.35,-1.25 0.35,-1.84l0 -1c0,-0.27 -0.07,-0.44 -0.05,-0.62 0.03,-0.25 0.06,-0.44 0.1,-0.67 0.08,-0.45 0.09,-0.94 0.11,-1.35l0.04 -1.69c0.02,-0.42 0.23,-0.7 0.23,-0.96 0,-0.34 -0.39,-0.62 -0.38,-1.42 0,-0.6 0,-1.2 0,-1.8 0,-0.84 -0.18,-0.98 -0.23,-1.57 -0.05,-0.57 -0.12,-1.12 -0.12,-1.73l0 -2.27c0,-1.08 0.1,-1.5 0.31,-2.34 0.1,-0.39 0.82,-1.46 1.23,-1.46 0.19,0 0.76,0.36 0.96,0.45 0.36,0.16 0.76,0.16 1.26,0.16l1.46 0.01 0.61 -0.05c0.14,-0.09 0.31,-0.16 0.31,-0.38 0,-0.17 -0.14,-0.38 -0.31,-0.38 -0.33,0 -0.32,0.46 -1.04,0.46l-0.35 0c-0.49,0 -1.32,-0.09 -1.65,-0.23 -0.43,-0.19 -0.77,-0.73 -1.15,-0.73l-0.04 0c-0.35,0 -1.31,1.11 -1.51,1.41 -0.25,0.37 -0.6,1.71 -0.6,2.32z"/>
    <path class="fil1" d="M87.9 11.26l0 0.19c0,0.1 0.05,0.11 0.12,0.15 0.14,-0.03 0.27,-0.12 0.38,-0.12l0.08 0c0.6,0 0.84,1.54 2.69,1.54 0.39,0 1.35,-0.09 1.38,-0.42l-1.31 0c-1.81,0 -1.52,-1.69 -2.53,-1.69 -0.29,0 -0.81,0.08 -0.81,0.35z"/>
    <path class="fil1" d="M86.59 18.44l-0.04 1.54 0 0.54c0,0.3 0.4,1.07 0.64,1.21 0.53,0.3 1.05,0.08 1.69,0.19 0.44,0.08 1.32,0.02 1.82,0.02 0.44,0 1.61,0.17 1.61,-0.19l0 -0.04c0,-0.32 -1.15,-0.19 -1.5,-0.19 -0.56,0 -1.13,0.01 -1.69,0 -0.44,-0.01 -1.21,-0.02 -1.5,-0.19 -0.26,-0.16 -0.55,-0.75 -0.52,-1.19l0.01 -1.34 0.05 -0.5c0.23,-0.34 0.17,-1.07 0.96,-1.05l2.38 0.09 1.27 0c0.15,0 0.38,-0.05 0.38,-0.19 0,-0.38 -0.48,-0.31 -0.82,-0.37 -0.25,-0.05 -0.84,-0.09 -1.1,-0.09 -0.82,0 -1.51,-0.04 -2.34,-0.04 -0.56,0 -0.79,0.17 -0.98,0.55 -0.06,0.12 -0.32,1.11 -0.32,1.25z"/>
    <path class="fil1" d="M71.61 14.41l0 0.08c0,0.24 1.49,1.93 1.74,2.18 0.34,0.34 0.62,0.65 0.92,1.04 0.2,0.25 0.66,0.93 1.03,0.93 0.54,0 0.5,-1.46 0.5,-1.96l0 -0.92c0,-0.33 0.13,-1.15 -0.23,-1.15l-0.15 0c-0.33,0 -0.31,1.06 -0.31,1.46l0 0.42c0,0.24 0.08,0.29 0.08,0.54l0 0.12c0,0.14 -0.11,0.31 -0.23,0.31l-0.04 0c-0.34,0 -0.61,-0.52 -0.8,-0.74 -0.27,-0.32 -0.48,-0.53 -0.75,-0.82 -0.28,-0.31 -1.08,-1.66 -1.49,-1.66l-0.08 0c-0.09,0 -0.19,0.1 -0.19,0.19z"/>
    <path class="fil1" d="M70.15 17.75l0.04 0c0.39,0 2.48,2.58 2.89,2.99 0.61,0.6 2.11,2.85 3.02,2.85l1.38 0c0.69,0 0.54,-0.82 0.54,-1.5 0,-0.34 0,-0.69 0,-1.04 -0,-0.36 0.08,-0.62 0.08,-0.96 -0.01,-1.35 0.08,-2.68 0.08,-4.07l0 -0.42c0,-0.61 -0.11,-1.04 -0.73,-1.04l-0.23 0c-0.55,0 -0.38,0.62 -0.38,1.11 0,0.53 -0,1.03 -0,1.54 0.01,1.11 -0.04,2.05 -0.04,3.07l0 0.27c0,0.26 -0.08,0.69 -0.31,0.69l-0.15 0c-0.26,0 -1.46,-1.5 -1.65,-1.77 -0.15,-0.2 -0.61,-0.66 -0.82,-0.87 -0.26,-0.27 -0.58,-0.63 -0.8,-0.92 -0.54,-0.67 -2.52,-3.5 -3.37,-3.5l-0.54 0c-0.75,0 -0.65,0.82 -0.65,1.57 0,0.79 -0.04,1.44 -0.04,2.23 0,1.52 -0.04,2.86 -0.04,4.42 0,0.81 -0.15,1.34 0.92,1.19 0.72,-0.11 0.38,-1.07 0.47,-1.8 0.07,-0.63 0.01,-1.48 -0,-2.19 -0.01,-0.47 -0.19,-1.84 0.34,-1.84z"/>
    <path class="fil1" d="M70.73 22.47l0 0.04c0,0.23 -0.12,0.33 -0.12,0.62l0 0.12c0,0.25 0.19,0.31 0.35,0.38 0.16,-0.08 0.35,-0.16 0.34,-0.38l-0.04 -1.69 0 -0.15c0,-0.18 0.08,-0.38 0.23,-0.38 0.35,0 0.48,0.41 0.68,0.62 0.22,0.23 0.37,0.48 0.62,0.73 0.23,0.23 0.43,0.46 0.65,0.69 0.19,0.2 0.34,0.64 0.7,0.64 0.13,0 0.19,-0.14 0.23,-0.23 -0.09,-0.38 -0.54,-0.63 -0.76,-0.93 -0.23,-0.31 -0.51,-0.7 -0.75,-0.98 -0.26,-0.31 -0.56,-0.6 -0.85,-0.88 -0.24,-0.25 -0.48,-0.82 -0.91,-0.82l-0.08 0c-0.54,0 -0.31,2.08 -0.31,2.61z"/>
    <path class="fil1" d="M91.35 23.93l0.04 0c0.43,0 1.11,-0.07 1.11,-0.46l0 -0.11c0,-0.42 -0.5,-0.35 -0.92,-0.35 -0.46,0 -0.78,-0.12 -1.19,-0.12 -0.63,0 -0.85,0.16 -1.64,0.02 -0.57,-0.1 -1.23,0.06 -1.81,-0.03 -0.58,-0.09 -0.88,-0.27 -1.15,-0.69 -0.27,-0.41 -0.12,-1.01 -0.12,-1.64l0 -0.31c0,-0.84 -0.11,-1.96 0.06,-2.82 0.09,-0.48 0.16,-0.76 0.45,-1.05 0.14,-0.14 0.79,-0.47 1.03,-0.47l0.96 -0.01 0.65 0.09 2.3 0c0.4,0 0.63,-0.08 1.08,-0.08 0.33,0 0.69,-0.23 0.69,-0.5 0,-0.7 -0.56,-0.61 -1.23,-0.61l-1.88 0c-1.29,0 -2.49,-0.08 -3.69,-0.08 -0.14,0 -0.92,0.07 -1.09,0.1 -0.4,0.07 -0.58,0.14 -0.77,0.42 -0.32,0.47 -0.33,1.28 -0.33,2.05 0,1.52 -0.05,3.18 -0.11,4.69 -0.03,0.6 -0.1,0.46 0.15,0.96 0.15,0.29 0.26,0.48 0.57,0.62 0.4,0.17 1.54,0.27 2.15,0.27 1.5,-0.01 3.09,0.11 4.68,0.11z"/>
    <path class="fil1" d="M72.77 27.62c0.59,0 1.58,0.39 1.56,0.92l0.01 1.5c-0,0.6 -0.25,1.27 -0.84,1.27 -0.58,0 -1.29,0.16 -1.54,-0.3 -0.14,-0.25 -0.03,-1.47 -0.03,-1.89 0,-0.81 -0.29,-1.5 0.84,-1.5zm2.09 0.62c0.01,-0.34 -0.37,-0.75 -0.64,-0.84 -0.34,-0.1 -0.89,-0.16 -1.26,-0.2 -0.92,-0.1 -1.73,0.2 -1.69,1.19l0.12 2.42 -0.04 0c0.06,1.24 0.92,0.88 2.04,0.88 0.66,0 0.74,-0.05 1.06,-0.43 0.18,-0.21 0.47,-0.63 0.47,-0.99l-0.03 -0.54 -0.03 -1.5z"/>
    <path class="fil1" d="M86.67 27.51l0 0.04c0,0.36 1.14,0.19 1.54,0.19l0.12 -0.01 2.53 0.04 0.88 0c0.14,0 0.31,-0.11 0.31,-0.23l0 -0.04c0,-0.42 -3.65,-0.19 -4.26,-0.19 -0.32,0 -1.11,-0.15 -1.11,0.19z"/>
    <path class="fil1" d="M84.98 30.58l0 0.08c0,0.69 3.88,-0.25 3.88,0.77l0 0.04c0,0.56 -1.42,0.23 -1.84,0.23 -0.75,0 -1.44,-0.04 -2.23,-0.04l-0.04 0c-0.19,0 -0.5,0.06 -0.5,0.23 0,0.43 0.93,0.21 1.34,0.28 0.28,0.04 1.22,0.07 1.54,0.07 1.04,0 2.3,0.23 2.3,-0.88 0,-0.34 -0.34,-0.68 -0.64,-0.78 -0.36,-0.12 -0.91,-0.04 -1.36,-0.06 -0.36,-0.01 -2.46,-0.39 -2.46,0.08z"/>
    <path class="fil1" d="M70.5 27.89c0,-0.61 -0.12,-1.39 0.36,-1.52 0.12,-0.03 1.64,-0.13 1.79,-0.13l0.23 0c0.32,0 0.54,0.08 0.96,0.08 0.21,-0 0.73,0.01 0.96,0.04 0.49,0.05 1.04,0.44 1.04,0.96l0 0.11 -0.01 1.58 0.01 0.38c0,0.51 0.02,2.38 -0.08,2.65 -0.27,0.73 -0.99,0.77 -1.99,0.77 -0.55,0 -2.39,0.09 -2.72,0.03 -0.36,-0.06 -0.55,-0.37 -0.55,-0.84 0.01,-0.45 0,-0.82 0,-1.3l0 -0.04 0.01 -1.11 -0.01 -1.65zm-2.07 2.23l0 0.38c0,0.63 0.04,1.13 0.04,1.73 -0,0.33 0.04,0.51 0.04,0.85 -0,0.4 -0.03,0.53 0.27,0.65 0.49,0.21 2.75,-0.01 3.5,0.1 0.59,0.09 2.89,0.06 3.56,0.05 0.74,-0.01 1.7,-1.14 1.87,-1.74 0.25,-0.89 0.09,-2.4 0.09,-3.36 0,-0.67 -0.08,-1.06 -0.08,-1.73 0,-0.71 -0.11,-0.97 -0.47,-1.34 -0.39,-0.39 -0.59,-0.47 -1.33,-0.47 -0.67,0 -1.14,-0.08 -1.73,-0.08 -1.22,0 -2.33,0.04 -3.57,0.04l-0.54 0c-0.36,0 -0.64,-0.19 -1,-0.19l-0.04 0c-0.54,0 -0.54,0.36 -0.54,0.88l0 1.42c0,0.99 -0.08,1.92 -0.08,2.8z"/>
    <path class="fil1" d="M85.59 25.55l-1.19 0c-0.23,0.15 -0.28,0.11 -0.49,0.35 -0.06,0.07 -0.24,0.53 -0.24,0.64l0 2.07c0,0.56 0.5,0.93 1.01,1.02 0.56,0.1 1.22,0.21 1.83,0.21 1.16,-0 3.1,-0.25 3.71,0.36 0.18,0.18 0.28,0.36 0.28,0.72 -0,0.34 0.04,0.72 0.01,0.97 -0.08,0.47 -0.54,0.94 -1.08,0.96 -1.24,0.04 -2.63,-0.04 -3.96,-0.04 -0.7,0 -2.11,-0.11 -2.11,0.58l0 0.04c0,0.69 0.68,0.81 1.38,0.81l1.27 0c0.49,0 1.65,0.06 2.06,-0.02 0.65,-0.12 1.42,0.07 2.07,-0.05 0.77,-0.14 1.08,0.01 1.64,-0.43 0.25,-0.19 0.76,-0.93 0.76,-1.35l0 -1.42c0,-0.33 -0.09,-0.88 -0.11,-1.31 -0.03,-0.46 -0.27,-0.65 -0.63,-0.79 -0.81,-0.32 -1.57,-0.17 -2.6,-0.17 -0.76,0 -1.63,0.03 -2.34,0 -0.56,-0.02 -1.38,-0.46 -1.38,-1.04l0 -0.15c0,-0.39 0.31,-0.64 0.62,-0.72 0.26,-0.07 0.9,-0.2 1.18,-0.2l0.08 0c0.14,0 0.44,0.09 0.62,0.11 0.2,0.02 0.55,0 0.77,0l1.54 0c0.5,0 1.02,0.04 1.46,0.04 0.55,-0 0.84,-0.15 0.84,-0.69l0 -0.19c0,-0.19 -0.31,-0.42 -0.57,-0.42 -0.35,-0 -0.61,0.04 -1,0.04l-1.04 0c-0.4,-0 -0.59,0.08 -0.96,0.08l-1.38 0c-0.19,0 -0.65,-0.19 -0.96,-0.19 -0.36,0 -0.8,0.2 -1.07,0.19z"/>
    <path class="fil1" d="M76.84 37.18c0,-0.28 0.79,-0.35 1.1,-0.4 0.19,-0.03 1.23,-0.14 1.36,-0.14 0.31,0 0.73,0.4 0.73,0.69l0 0.12c0,0.54 -1.16,0.39 -1.62,0.32 -0.43,-0.07 -1.57,-0.09 -1.57,-0.51l0 -0.08zm2.88 -1.84c0,-0.27 0.23,-0.45 0.31,-0.72 0.06,-0.19 0.1,-0.66 0.38,-0.66l0.08 0c0.39,0 0.4,0.73 0.52,1.09 0.07,0.21 0.2,0.39 0.05,0.59 -0.08,0.1 -0.36,0.28 -0.53,0.28l-0.11 0c-0.32,0 -0.69,-0.2 -0.69,-0.5l0 -0.08zm0.31 -8.02c-0.15,0.09 -0.46,0.27 -0.46,0.5 0,0.21 0.19,2.08 0.23,2.19 0.19,0.5 0.39,1.35 0.39,2.03l0 0.08c0,0.53 -0.16,1.45 -0.37,1.78 -0.16,0.27 -0.21,0.48 -0.32,0.76 -0.08,0.2 -0.39,0.65 -0.39,0.72 0,0.33 0.27,0.29 0.27,0.58 0,0.18 -0.16,0.31 -0.31,0.31 -0.58,0 -0.46,-0.66 -1.02,-0.79 -0.25,-0.05 -0.52,-0.06 -0.76,-0.12 -0.18,-0.05 -0.55,-0.25 -0.68,-0.25l-0.27 0c0,0 -0.99,0.29 -1.06,0.32 -0.18,0.07 -0.44,0.55 -0.66,0.77 -0.21,0.2 -0.52,0.46 -0.79,0.6 -0.23,0.12 -0.99,0.05 -0.99,0.43l0 0.08c0,0.44 0.58,0.41 1,0.46 0.25,0.03 0.79,0.34 1,0.46 0.49,0.29 0.41,0.3 0.66,0.79 0.13,0.25 0.68,0.43 1.03,0.43l0.15 0c0.28,0 0.96,-0.22 0.96,-0.46 0,-0.25 -0.57,-0.28 -0.82,-0.33 -0.34,-0.07 -0.59,-0.17 -0.86,-0.29 -0.33,-0.15 -1.16,-0.72 -1.16,-1.15 0,-1.03 2.65,-1.6 2.65,-1.07 0,0.36 -0.54,0.42 -0.83,0.55 -0.47,0.21 -0.56,0.15 -0.78,0.6 0.21,0.43 0.52,0.56 0.98,0.75 0.31,0.12 1.03,0.3 1.44,0.29l3.69 -0.04 0 0.04c0.03,0.04 0.11,0.13 0.11,0.15 0,0.32 -1.48,0.54 -1.88,0.54l-0.15 -0.01 -1.03 -0.04 -0 0.05c0,0.27 0.45,0.44 0.62,0.6 0.31,0.3 0.55,0.18 0.99,0.16 0.62,-0.02 0.58,0.05 0.98,-0.25 0.25,-0.19 0.4,-0.48 0.79,-0.48l0.84 0c0.38,0 0.55,0.31 1.05,0.41 0.42,0.08 0.96,-0.11 1.09,-0.37 0.22,-0.47 0.06,-0.59 0.47,-0.99 0.35,-0.33 0.52,-0.33 1.1,-0.39 0.38,-0.04 0.71,-0.44 0.43,-0.81 -0.29,-0.39 -0.67,-0.16 -1.15,-0.35 -1.03,-0.41 -0.45,-1.52 -1.47,-1.52l-0.31 -0.01 -0.46 0.05c-0.2,0.13 -0.46,0.23 -0.81,0.23 -0.3,-0 -0.85,-0.05 -0.85,0.23l0 0.04c0,0.37 0.66,0.23 0.98,0.29 0.35,0.07 0.71,0.14 1.03,0.23 0.41,0.12 1.48,0.68 1.48,1.09l0 0.12c0,0.27 -0.69,0.72 -0.91,0.86 -0.38,0.25 -0.78,0.37 -1.4,0.37l-0.08 0c-0.1,0 -0.31,-0.03 -0.31,-0.11 0,-0.31 1.65,-0.69 1.65,-1.11l0 -0.12c0,-0.35 -0.5,-0.62 -0.78,-0.72 -0.11,-0.04 -1.2,-0.32 -1.21,-0.32l-0.12 0c-0.23,0 -0.96,0.24 -0.96,0.46l0 0.08c0,0.37 0.67,0.23 1,0.23l0.62 0c0.24,0 0.62,0.05 0.62,0.27l0 0.04c0,0.44 -1.11,0.46 -1.58,0.5 -0.49,0.04 -1.65,0.27 -1.65,-0.31l0 -0.04c0,-0.34 0.26,-0.9 0.4,-1.14 0.07,-0.12 0.41,-1 0.41,-1.13l0 -0.12c0,-0.65 -0.65,-1.19 -0.65,-1.73l0 -0.88c0,-0.66 0.31,-1.41 0.42,-2 0.06,-0.33 -0.04,-0.86 0.02,-1.21 0.06,-0.31 0.18,-0.74 0.18,-1.05l0 -0.31c0,-0.34 -0.2,-0.54 -0.54,-0.54l-0.46 -0.01 -0.46 0.05z"/>
    <path class="fil1" d="M72.15 37.34c0,-0.93 0.07,-1.08 0.96,-1.08 0.5,0 0.54,-0 0.84,-0.19 0.14,-0.09 0.42,-0.35 0.42,-0.57l0 -0.04c0,-0.71 -1.65,-0.73 -2.42,-0.73 -1.09,0 -2.04,-0.12 -3.03,-0.12l-0.23 0c-0.2,0 -0.5,0.17 -0.5,0.35l0 0.12c0,0.23 0.57,0.31 0.84,0.31l0.58 0c0.66,0 1.36,-0.03 1.96,-0.04 0.33,-0 0.67,0 1,0 0.44,0 0.61,-0.07 0.77,0.23 -0.51,0.58 -2,-0.81 -2,2.07l0 0.04c0,0.12 0.24,0.76 0.29,0.86 0.17,0.31 0.38,0.28 0.78,0.34 1.22,0.17 0.49,0.84 1.04,1.18 0.34,0.21 1.32,0.37 1.8,0.46 0.29,0.06 0.62,0.12 0.92,0.2 0.24,0.06 0.63,0.3 0.81,0.3 0.38,0 0.61,-0.65 0.88,-0.65l0.08 0c0.56,0 -0.04,0.77 1.27,0.77l1.84 0c0.45,0 0.81,-0.04 1.11,-0.19 0.25,-0.12 0.49,-0.54 0.77,-0.54 0.43,0 0.34,0.65 1.04,0.65l0.08 0c0.24,0 0.7,-0.22 0.86,-0.33 0.13,-0.09 0.22,-0.16 0.36,-0.25 0.15,-0.1 0.25,-0.09 0.39,-0.18 0.96,0 1.07,-0.2 1.32,-0.91 0.18,-0.51 1.17,-0.29 1.77,-0.46 0.64,-0.18 0.48,-0.96 0.48,-1.74 0,-0.4 0.08,-0.63 -0.02,-1.02 -0.09,-0.35 -0.38,-0.37 -0.52,-0.56 0.07,-0.1 0.26,-0.12 0.42,-0.12 0.58,0 1.12,0.06 1.65,0.08 0.42,0.02 1.27,0.27 1.27,-0.27 0,-0.19 -0.21,-0.31 -0.42,-0.31l-4.76 0c-0.18,0 -0.42,0.11 -0.42,0.27l0 0.08c0,0.28 0.48,0.59 0.69,0.69 0.36,0.19 0.85,0.13 1.12,0.27 0.37,0.19 0.27,0.62 0.27,1.04 0,0.53 -0.06,0.77 -0.37,1.01 -0.47,0.35 -1.3,-0.25 -1.95,0.81 -0.24,0.4 -0.29,0.45 -0.72,0.66 -0.24,0.12 -0.71,0.36 -1.02,0.36l-0.08 0c-0.51,0 -1.06,-0.58 -1.38,-0.58l-0.27 0c-0.44,0 -0.86,0.92 -1.5,0.92l-1.19 0c-1.12,0 -1.13,-0.92 -1.77,-0.92 -0.42,0 -0.97,0.5 -1.46,0.5 -0.33,0 -0.53,-0.11 -0.78,-0.15 -0.26,-0.04 -0.55,-0.01 -0.83,-0.05 -0.17,-0.03 -0.56,-0.14 -0.7,-0.22 -0.28,-0.17 -0.13,-0.35 -0.12,-0.62 0.02,-0.45 -0.74,-0.51 -1.13,-0.66 -0.38,-0.16 -1.09,-0.18 -1.09,-0.71l0 -0.35z"/>
   </g>
   <g id="WASSAN_x0020_Logo_x0020_CDR.cdr">
    <path class="fil2" d="M13.39 33.41c0,0.2 0.6,0.3 0.81,0.3l1.85 0c0.55,0 2.3,-0.38 2.76,-0.54 0.76,-0.26 1.69,-0.61 2.31,-0.99 1.51,-0.95 2.45,-1.69 3.58,-3.03 1.05,-1.24 1.79,-2.52 2.56,-4.06 0.67,-1.34 1.44,-3.2 1.93,-4.68 0.27,-0.83 0.6,-1.65 0.85,-2.46 0.25,-0.81 0.47,-1.74 0.75,-2.56 0.6,-1.73 1,-3.29 1.77,-4.84 0.43,-0.87 0.75,-1.28 1.26,-2.04 0.28,-0.42 1.23,-1.37 1.63,-1.68 0.6,-0.45 1.31,-0.99 1.96,-1.34 0.27,-0.15 2.14,-1.01 2.14,-1.21l0 -0.04c0,-0.13 -0.12,-0.17 -0.26,-0.17l-0.05 0c-1.49,0 -4.26,1.08 -5.18,1.69 -1.47,0.99 -2.56,1.89 -3.6,3.32 -1.07,1.46 -1.6,2.81 -2.31,4.61 -0.32,0.82 -0.62,1.66 -0.91,2.52 -0.29,0.87 -0.55,1.79 -0.89,2.59 -0.15,0.38 -0.26,0.9 -0.4,1.32 -0.15,0.44 -0.28,0.83 -0.44,1.28 -0.27,0.79 -0.62,1.74 -0.95,2.49 -0.37,0.86 -0.7,1.53 -1.1,2.33 -0.39,0.79 -0.89,1.42 -1.35,2.13 -0.79,1.19 -2.39,2.51 -3.64,3.27 -0.6,0.37 -1.65,0.87 -2.34,1.09 -0.54,0.17 -0.7,0.28 -1.36,0.36 -0.22,0.02 -0.4,0.16 -0.69,0.17 -0.22,0.01 -0.73,-0.03 -0.73,0.17zm30.22 -20.32l0.13 -0.04c0.11,-0.46 0.38,-1.19 -0.26,-1.25 -0.04,0.47 -0.24,1.04 0.13,1.29zm-1.25 0.9l0 0.09c0,0.07 0.03,0.13 0.09,0.13 0.05,0 0.13,-0.09 0.13,-0.17l0 -0.09c0,-0.07 -0.03,-0.13 -0.09,-0.13 -0.05,0 -0.13,0.09 -0.13,0.17zm2.1 -3.74c0,-0.29 0.41,-0.82 0.73,-0.82l0.09 0c0.1,0 0.17,0.07 0.17,0.17l0 0.09c0,0.23 -0.71,0.68 -0.99,0.69l0 -0.13zm3.95 -3.09l-0.17 0c-0.34,0 -1.15,0.58 -1.38,0.76 -0.53,0.41 -0.43,0.69 -1.32,0.82 -0.73,0.11 -0.97,0.32 -1.34,0.81 -0.21,0.28 -0.68,1.07 -0.68,1.51l0 0.43c0.38,-0.03 0.47,-0.9 0.86,-0.9 0.09,0 0.15,0.21 0.3,0.21l0.04 0c0.96,0 1.6,-0.99 1.76,-0.99l0.15 0.01 0.23 0.38c0.16,-0.11 0.52,-0.73 0.52,-0.99 0,-0.17 -0.39,-0.07 -0.39,-0.21 0,-0.69 0.55,-1.2 1.25,-1.2l0.08 0c0.31,0 0.29,0.26 0.69,0.26 0.1,0 0.39,-0.26 0.43,-0.26 0.07,0 0.13,0.03 0.13,0.09 0,0.41 -0.47,0.42 -0.47,0.77 0,0.14 0.16,0.21 0.3,0.21l0.04 0c0.3,0 0.54,-0.35 0.66,-0.59 0.05,-0.11 0.42,-0.86 0.42,-0.88 0,-0.21 -0.34,-0.2 -0.34,-0.34 0,-0.3 0.46,-0.48 0.72,-0.56 0.63,-0.2 0.56,0.03 0.56,0.52 0,0.13 0.04,0.26 0.17,0.26l0.09 0c0.22,0 0.32,-0.47 0.51,-0.6 0.12,0.08 0.26,0.18 0.26,0.39l0 0.09c0,0.21 -0.08,0.35 -0.08,0.47 0.01,0.14 0.12,0.32 0.12,0.48 0,0.58 -0.81,0.77 -1.24,0.95 -0.67,0.28 -0.93,0.32 -1.29,0.95 -0.26,0.45 -0.31,1.13 -0.66,1.53 -0.45,0.54 -0.8,0.54 -1.24,0.99 -0.74,0.74 -0.72,2.09 -2.35,2.07 -2.04,-0.02 -2.08,1.8 -2.62,1.8 -0.11,0 -0.36,-0.27 -0.65,-0.29 -0.16,-0.01 -0.76,0.01 -0.76,0.21l0 0.04c0,0.27 0.42,0.27 0.68,0.31 0.26,0.03 0.58,0.21 0.82,0.21 0.85,0 0.96,-1.67 1.8,-1.67 0.42,0 0.63,0.34 1.2,0.34 1.11,0 1.57,-1.21 1.95,-2.01 0.22,-0.47 0.39,-0.92 0.8,-1.17 0.28,-0.17 0.38,-0.01 0.68,-0.31 0.24,-0.25 0.27,-0.3 0.44,-0.59 0.23,-0.4 0.39,-0.92 0.65,-1.32 0.45,-0.69 0.7,-0.36 1.31,-0.67 1.1,-0.55 0.96,-1.51 0.96,-2.95 -0.12,-0.08 -0.15,-0.17 -0.34,-0.17l-0.04 0c-0.2,0 -0.35,0.17 -0.39,0.17 -0.3,0 -0.14,-0.73 -1.03,-0.73l-0.09 0c-0.56,0 -1.16,0.53 -1.39,0.89 -0.11,0.16 -0.36,0.58 -0.49,0.67 -0.34,0.23 -0.52,-0.18 -0.82,-0.18zm-7.73 7.43l0 1.16c0,0.1 0.15,0.26 0.26,0.26l0.17 0c0.12,0 0.13,-0.06 0.17,-0.13 -0.04,-0.19 -0.17,-0.39 -0.17,-0.56 0,-0.76 0.14,-1.6 0.59,-1.94 0.26,-0.19 0.7,-0.06 0.98,-0.26 0.14,-0.1 0.53,-0.55 0.53,-0.76l0 -0.08c0,-0.27 -0.81,-0.14 -1.01,-0.06 -0.27,0.11 -0.58,0.34 -0.74,0.54 -0.2,0.24 -0.78,1.43 -0.78,1.84zm-22.45 19.81c-0.02,0.03 -0.08,0.11 -0.08,0.13 0,0.1 0.03,0.1 0.08,0.17 2.67,0 4.62,-1.24 6.39,-2.28 0.59,-0.35 2.01,-1.42 2.48,-1.9 0.31,-0.32 0.86,-0.66 1.22,-0.97 0.37,-0.31 0.89,-0.63 1.29,-0.94 0.76,-0.58 1.79,-1.26 2.62,-1.76 0.92,-0.55 1.78,-1.13 2.74,-1.64 0.49,-0.26 0.96,-0.48 1.46,-0.73 0.48,-0.24 0.99,-0.53 1.48,-0.71 0.54,-0.2 0.93,-0.43 1.59,-0.6 0.37,-0.09 1.5,-0.34 1.89,-0.34l0.21 0c0.39,0 1.17,0.2 1.34,0.42 0.23,0.3 0.51,0.76 0.51,1.26l0 0.3c0,1.51 -1.51,3.29 -2.17,4.27 -0.63,0.93 -2.21,2.93 -2.46,4.02 0.36,-0.08 1.27,-1.55 1.62,-1.9 0.56,-0.55 1.13,-1.28 1.69,-1.87 0.66,-0.7 1.06,-1.13 1.65,-1.91 0.35,-0.46 1.04,-1.77 1.04,-2.52l0 -0.47c0,-0.98 -0.87,-2.06 -1.45,-2.5 -0.57,-0.43 -1.93,-1.11 -2.88,-1.11l-0.17 0c-0.21,0 -0.89,0.15 -1.18,0.2 -0.45,0.08 -0.73,0.18 -1.12,0.29 -0.68,0.19 -1.46,0.51 -2.03,0.8 -0.53,0.27 -1.31,0.7 -1.81,1.02 -0.31,0.2 -0.54,0.38 -0.84,0.58 -0.08,0.05 -0.87,0.63 -0.87,0.38 0,-0.59 2.6,-3.7 3.08,-4.18 0.52,-0.51 1.36,-1.29 1.96,-1.69 0.35,-0.24 1.9,-1.35 2.3,-1.35l0.13 0c0.19,0 0.77,0.11 0.77,-0.04 0,-0.24 -0.59,-0.4 -0.76,-0.66 -0.18,-0.28 -0.05,-0.98 -0.44,-1.02 -0.17,0.72 -0.68,0.94 -1.23,1.31 -0.53,0.35 -0.98,0.7 -1.49,1.04 -0.75,0.5 -2.2,1.67 -2.72,2.34 -0.34,0.44 -0.82,0.84 -1.2,1.34 -0.36,0.48 -0.75,0.95 -1.06,1.48 -0.53,0.93 -1.42,2.14 -2.06,3.01 -1.42,1.92 -3.08,3.72 -4.89,5.25 -0.78,0.66 -2.08,1.57 -3.01,2.06 -0.58,0.31 -2.94,1.43 -3.63,1.43zm-9.96 -2.28c0.13,0.19 0.55,0.3 0.86,0.3l0.13 0c1,0 2.23,-0.16 3.1,-0.3 1,-0.16 1.85,-0.41 2.66,-0.78 1.61,-0.73 2.82,-1.64 4,-2.82 2.03,-2.03 3.83,-5.77 4.87,-8.83 0.13,-0.39 0.31,-0.81 0.46,-1.21 0.17,-0.43 0.26,-0.87 0.42,-1.3 0.23,-0.63 0.72,-1.97 0.84,-2.59 0.16,-0.82 0.54,-1.83 0.79,-2.6 0.24,-0.76 0.61,-1.79 0.95,-2.48 0.95,-1.91 1.49,-2.52 2.94,-3.89 0.64,-0.6 1.31,-0.92 2.03,-1.41 0.3,-0.2 2.15,-1.02 2.15,-1.29 0,-0.13 -0.13,-0.17 -0.26,-0.17l-0.69 0c-0.25,0 -0.97,0.29 -1.33,0.35 -0.4,0.06 -0.91,0.29 -1.28,0.44 -0.68,0.27 -1.76,0.76 -2.28,1.16 -0.29,0.22 -0.67,0.5 -0.97,0.7 -0.36,0.24 -0.6,0.52 -0.9,0.82 -0.65,0.65 -1.02,1.14 -1.57,1.87 -1.58,2.08 -3,6.85 -3.95,9.71 -0.55,1.65 -1.13,3.49 -1.84,4.99 -0.39,0.82 -0.64,1.54 -1.09,2.3 -0.35,0.59 -0.91,1.61 -1.36,2.07 -0.26,0.27 -0.49,0.62 -0.77,0.9 -0.32,0.31 -0.51,0.55 -0.86,0.86 -0.46,0.42 -1.44,1.14 -2,1.44 -0.82,0.43 -1.38,0.74 -2.33,1.06 -0.56,0.19 -0.72,0.23 -1.37,0.34 -0.36,0.06 -1.19,0.13 -1.35,0.37z"/>
    <path class="fil3" d="M10.47 27.44c0.04,-0.15 0.94,-0.83 1.15,-1.04 0.4,-0.4 0.64,-0.74 0.94,-1.25 0.25,-0.44 0.5,-1.01 0.63,-1.56 0.06,-0.25 0.16,-0.62 0.2,-0.88 0.05,-0.38 0.01,-0.59 0.48,-0.59l0.86 0c0.24,0 0.33,0.07 0.43,0.22 -0.06,0.74 -0.34,1.34 -0.55,1.9 -0.25,0.64 -0.59,0.97 -0.95,1.45 -0.41,0.57 -2.11,1.76 -3.05,1.76l-0.13 0zm4.72 -7.78l0 0.09c0,0.17 -0.21,0.21 -0.39,0.21l-0.99 0c-0.48,0 -0.43,-0.31 -0.43,-0.77 0,-0.32 -0.07,-0.79 -0.14,-1.06 -0.15,-0.61 -0.21,-1.39 -0.36,-2.05 -0.12,-0.53 -1,-3.56 -0.88,-3.81 0.42,0.28 3.18,6.55 3.18,7.39zm-15.2 1.85l0 0.34c0,0.21 0.17,1.54 0.22,1.71 0.16,0.53 0.27,1 0.47,1.5 0.34,0.85 0.97,1.73 1.57,2.34 0.56,0.57 1.54,1.27 2.29,1.61 0.73,0.33 2.06,0.87 3.08,0.87l1.24 0c0.85,0 2.64,-0.58 3.17,-0.91 0.46,-0.29 0.84,-0.44 1.28,-0.78 0.43,-0.32 0.74,-0.57 1.12,-0.94 1.24,-1.24 2.54,-3.2 2.54,-5.66l0 -0.6c0,-1.93 -0.82,-3.47 -1.39,-4.88 -0.28,-0.69 -0.66,-1.48 -0.99,-2.15 -0.31,-0.62 -0.71,-1.56 -1.08,-2.1 -0.4,-0.59 -0.73,-1.38 -1.11,-2.02 -0.4,-0.67 -0.76,-1.32 -1.18,-1.96 -0.3,-0.46 -2.27,-3.77 -2.54,-3.77l-0.13 0c-0.38,0 -4.58,7.08 -5.02,7.95 -0.36,0.71 -0.75,1.37 -1.12,2.11 -0.36,0.72 -0.69,1.47 -1.06,2.21 -0.36,0.7 -0.62,1.58 -0.89,2.38 -0.11,0.34 -0.27,0.94 -0.33,1.3 -0.04,0.26 -0.01,0.5 -0.04,0.78 -0.03,0.23 -0.13,0.43 -0.13,0.69z"/>
    <polygon class="fil4" points="4.39,36.22 6.37,36.22 7.08,39.98 8.12,36.22 10.09,36.22 11.12,39.98 11.84,36.22 13.8,36.22 12.32,42.95 10.28,42.95 9.1,38.71 7.93,42.95 5.89,42.95 "/>
    <path class="fil4" d="M18.62 41.84l-2.37 0 -0.32 1.11 -2.12 0 2.53 -6.73 2.26 0 2.53 6.73 -2.17 0 -0.33 -1.11zm-0.44 -1.46l-0.74 -2.42 -0.74 2.42 1.48 0z"/>
    <path class="fil4" d="M21.43 40.72l1.98 -0.12c0.04,0.32 0.13,0.57 0.26,0.73 0.21,0.27 0.52,0.41 0.92,0.41 0.3,0 0.52,-0.07 0.68,-0.21 0.16,-0.14 0.24,-0.3 0.24,-0.48 0,-0.17 -0.07,-0.33 -0.23,-0.47 -0.15,-0.14 -0.51,-0.27 -1.06,-0.39 -0.91,-0.2 -1.56,-0.48 -1.95,-0.82 -0.39,-0.34 -0.59,-0.77 -0.59,-1.3 0,-0.35 0.1,-0.67 0.3,-0.98 0.2,-0.31 0.5,-0.55 0.9,-0.72 0.4,-0.17 0.95,-0.26 1.65,-0.26 0.86,0 1.52,0.16 1.97,0.48 0.45,0.32 0.72,0.83 0.8,1.52l-1.96 0.11c-0.05,-0.3 -0.16,-0.52 -0.33,-0.66 -0.16,-0.13 -0.39,-0.2 -0.69,-0.2 -0.24,0 -0.42,0.05 -0.55,0.15 -0.12,0.1 -0.18,0.23 -0.18,0.37 0,0.11 0.05,0.2 0.15,0.29 0.1,0.09 0.33,0.17 0.7,0.25 0.91,0.2 1.56,0.4 1.95,0.59 0.39,0.2 0.68,0.45 0.86,0.75 0.18,0.3 0.27,0.63 0.27,1 0,0.43 -0.12,0.83 -0.36,1.19 -0.24,0.36 -0.57,0.64 -1,0.83 -0.43,0.19 -0.97,0.28 -1.62,0.28 -1.14,0 -1.94,-0.22 -2.37,-0.66 -0.44,-0.44 -0.69,-1 -0.75,-1.68z"/>
    <path class="fil4" d="M28.21 40.72l1.98 -0.12c0.04,0.32 0.13,0.57 0.26,0.73 0.21,0.27 0.52,0.41 0.92,0.41 0.3,0 0.52,-0.07 0.69,-0.21 0.16,-0.14 0.24,-0.3 0.24,-0.48 0,-0.17 -0.07,-0.33 -0.23,-0.47 -0.15,-0.14 -0.51,-0.27 -1.06,-0.39 -0.91,-0.2 -1.56,-0.48 -1.95,-0.82 -0.39,-0.34 -0.59,-0.77 -0.59,-1.3 0,-0.35 0.1,-0.67 0.3,-0.98 0.2,-0.31 0.5,-0.55 0.9,-0.72 0.4,-0.17 0.95,-0.26 1.65,-0.26 0.86,0 1.52,0.16 1.97,0.48 0.45,0.32 0.72,0.83 0.8,1.52l-1.96 0.11c-0.05,-0.3 -0.16,-0.52 -0.33,-0.66 -0.17,-0.13 -0.4,-0.2 -0.69,-0.2 -0.24,0 -0.42,0.05 -0.55,0.15 -0.12,0.1 -0.18,0.23 -0.18,0.37 0,0.11 0.05,0.2 0.15,0.29 0.1,0.09 0.33,0.17 0.7,0.25 0.91,0.2 1.56,0.4 1.95,0.59 0.39,0.2 0.68,0.45 0.86,0.75 0.18,0.3 0.27,0.63 0.27,1 0,0.43 -0.12,0.83 -0.36,1.19 -0.24,0.36 -0.57,0.64 -1,0.83 -0.43,0.19 -0.97,0.28 -1.62,0.28 -1.14,0 -1.94,-0.22 -2.37,-0.66 -0.44,-0.44 -0.69,-1 -0.75,-1.68z"/>
    <path class="fil4" d="M39.5 41.84l-2.37 0 -0.32 1.11 -2.12 0 2.53 -6.73 2.26 0 2.53 6.73 -2.17 0 -0.33 -1.11zm-0.44 -1.46l-0.74 -2.42 -0.74 2.42 1.48 0z"/>
    <polygon class="fil4" points="42.68,36.22 44.62,36.22 47.16,39.94 47.16,36.22 49.12,36.22 49.12,42.95 47.16,42.95 44.64,39.26 44.64,42.95 42.68,42.95 "/>
   </g>
  </g>
 </g>
</svg>
